<svg xmlns="http://www.w3.org/2000/svg" viewBox="0 0 377.47 107.34"><defs><style>.cls-1{fill:#fff;}</style></defs><g id="Layer_2" data-name="Layer 2"><g id="Layer_1-2" data-name="Layer 1"><path class="cls-1" d="M65.28.07c9.37,1.14,54.4,8.53,67.44,46.44,0,0,14.11,47.09-29.64,58.86,0,0-54.06,12.84-60.46-27.1a1.19,1.19,0,0,0-1.75-.86C36.45,79.9,24.42,88.6,33.1,106.08a.62.62,0,0,1-.52.89c-.82,0-1.95-.19-3.83-1.6C25.81,103.16,1.47,90.3.05,62.05S25,13.54,40.51,7.42A171,171,0,0,1,61.89.27,9.44,9.44,0,0,1,65.28.07Z"/><path class="cls-1" d="M164.54,52.84a3.19,3.19,0,0,1-2.46-.9,3,3,0,0,1-.62-2.53l3.8-33.64q.56-5.19,2.72-7.43t6.52-2.23q4.32,0,6.45,2.18c1.41,1.45,2.46,4,3.12,7.48l4.85,24.43c.18,1,.54,1.46,1.07,1.46s.91-.49,1.07-1.46l4.88-24.43c.66-3.53,1.7-6,3.11-7.48s3.54-2.18,6.39-2.18,5.09.74,6.54,2.23,2.37,4,2.77,7.43l3.8,33.64a3.15,3.15,0,0,1-.64,2.53,3.11,3.11,0,0,1-2.44.9h-3.39a3.06,3.06,0,0,1-3.39-3.08L205.38,18c-.07-.51-.33-.75-.77-.72s-.66.23-.76.69l-5.77,28.83a7.32,7.32,0,0,1-2.59,4.64,9.26,9.26,0,0,1-5.5,1.42,9.09,9.09,0,0,1-5.48-1.44,7.23,7.23,0,0,1-2.61-4.62L176.12,18q-.1-.69-.72-.69a.76.76,0,0,0-.8.72l-3.28,31.78a3.06,3.06,0,0,1-3.39,3.08Z"/><path class="cls-1" d="M261,47.3q-5.83,6.16-15.71,6.16T229.58,47.3q-5.85-6.16-5.84-17.5t5.84-17.51q5.85-6.18,15.72-6.18T261,12.29q5.85,6.18,5.84,17.51T261,47.3Zm-23.87-5.92c1.9,2.28,4.62,3.43,8.16,3.43s6.25-1.15,8.16-3.43,2.85-6.14,2.85-11.58-.95-9.29-2.85-11.58-4.63-3.42-8.16-3.42-6.26,1.14-8.16,3.42-2.86,6.15-2.86,11.58S235.23,39.09,237.14,41.38Z"/><path class="cls-1" d="M275.15,52.84a3.16,3.16,0,0,1-2.45-.9,3,3,0,0,1-.62-2.53l3.8-33.64q.56-5.19,2.71-7.43c1.44-1.49,3.62-2.23,6.52-2.23s5,.73,6.45,2.18,2.46,4,3.13,7.48l4.84,24.43c.19,1,.54,1.46,1.07,1.46s.91-.49,1.07-1.46l4.88-24.43c.67-3.53,1.71-6,3.11-7.48s3.54-2.18,6.4-2.18,5.08.74,6.53,2.23,2.38,4,2.77,7.43l3.8,33.64a2.79,2.79,0,0,1-3.07,3.43H322.7a3.06,3.06,0,0,1-3.39-3.08L316,18c-.07-.51-.32-.75-.76-.72a.73.73,0,0,0-.76.69l-5.78,28.83a7.27,7.27,0,0,1-2.59,4.64,9.21,9.21,0,0,1-5.5,1.42,9.09,9.09,0,0,1-5.48-1.44,7.32,7.32,0,0,1-2.61-4.62L286.74,18c-.07-.46-.31-.69-.73-.69a.75.75,0,0,0-.79.72l-3.29,31.78a3.06,3.06,0,0,1-3.39,3.08Z"/><path class="cls-1" d="M371.63,47.3q-5.85,6.16-15.72,6.16T340.2,47.3q-5.85-6.16-5.85-17.5t5.85-17.51Q346,6.11,355.91,6.11t15.72,6.18q5.83,6.18,5.84,17.51T371.63,47.3Zm-23.88-5.92c1.9,2.28,4.62,3.43,8.16,3.43s6.26-1.15,8.16-3.43,2.85-6.14,2.85-11.58-.95-9.29-2.85-11.58-4.62-3.42-8.16-3.42-6.26,1.14-8.16,3.42-2.85,6.15-2.85,11.58S345.85,39.09,347.75,41.38Z"/><path class="cls-1" d="M200.22,103.2c.74.94.83,1.75.26,2.44a3.75,3.75,0,0,1-3,1h-3.39q-3.28,0-4.57-1.77L174.12,86.06V103.4a3,3,0,0,1-3.25,3.26h-3.46a3.32,3.32,0,0,1-2.42-.85,3.22,3.22,0,0,1-.87-2.41V63.84a3.18,3.18,0,0,1,.87-2.4,3.28,3.28,0,0,1,2.42-.85h3.46a3,3,0,0,1,3.25,3.25V80.91L189.5,62.28q1.29-1.7,4.57-1.69h3.32a3.85,3.85,0,0,1,3.09,1c.57.68.47,1.49-.29,2.44L183.83,83.47Z"/><path class="cls-1" d="M245.62,106.66a3.48,3.48,0,0,1-3.66-2.77l-2.56-9.07H219.62l-2.56,9.07a3.49,3.49,0,0,1-3.63,2.77h-3.66a2.89,2.89,0,0,1-2.48-1A2.94,2.94,0,0,1,207,103l9.41-31.33q1.91-6.54,4.84-9.13t8.27-2.6q5.35,0,8.31,2.61t4.79,9.12L252,103a2.91,2.91,0,0,1-.26,2.66,2.87,2.87,0,0,1-2.47,1ZM222,86.48h15.11l-3.9-14a8,8,0,0,0-1.46-3.2,3.21,3.21,0,0,0-4.35,0,8.28,8.28,0,0,0-1.49,3.2Z"/><path class="cls-1" d="M287.19,60.59a3.31,3.31,0,0,1,2.42.85,3.22,3.22,0,0,1,.86,2.4V66.3a3.22,3.22,0,0,1-.86,2.4,3.31,3.31,0,0,1-2.42.85H275.78V103.4a3.22,3.22,0,0,1-.87,2.41,3.32,3.32,0,0,1-2.42.85h-3.56a3,3,0,0,1-3.25-3.26V69.55H254.23A3,3,0,0,1,251,66.3V63.84a3,3,0,0,1,3.25-3.25Z"/><path class="cls-1" d="M330.69,101.12q-5.85,6.16-15.72,6.16t-15.72-6.16q-5.83-6.16-5.84-17.5t5.84-17.51q5.85-6.18,15.72-6.18t15.72,6.18q5.83,6.18,5.84,17.51T330.69,101.12ZM306.81,95.2c1.9,2.28,4.62,3.43,8.16,3.43s6.26-1.15,8.16-3.43S326,89.06,326,83.62s-1-9.29-2.85-11.58-4.62-3.42-8.16-3.42-6.26,1.14-8.16,3.42S304,78.19,304,83.62,304.91,92.92,306.81,95.2Z"/></g></g></svg>