<?xml version="1.0" encoding="UTF-8"?>
<svg id="Layer_2" data-name="Layer 2" xmlns="http://www.w3.org/2000/svg" viewBox="0 0 77.82 33.09">
  <defs>
    <style>
      .cls-1 {
        fill: #eead1f;
      }

      .cls-2 {
        fill: #231f20;
      }

      .cls-3 {
        fill: #372822;
      }

      .cls-4 {
        fill: #fff;
      }

      .cls-5 {
        fill: #ed1c24;
      }

      .cls-6 {
        fill: #f7f7f7;
      }

      .cls-7 {
        fill: #382922;
      }

      .cls-8 {
        fill: #edad99;
      }
    </style>
  </defs>
  <g id="Layer_1-2" data-name="Layer 1">
    <rect class="cls-5" x="23.53" y="21.56" width="25.37" height="5.04" rx="2.52" ry="2.52"/>
    <g>
      <g>
        <path class="cls-5" d="M45.23,5.86c-1.78-1.11-4.42-1.73-5.86-3.05-.45-.41-.89-1.16-1.5-1.37-.99-.36-1.99.15-2.33,1.08-1.28-.59-2.7-.93-4.2-.93-5.49,0-9.94,4.45-9.94,9.94,0,4.48,2.96,8.26,7.03,9.51.61.71,1.39,1.37,2.37,1.95,4.01,2.38,11.16,1.09,15.24-.75,7.96-3.58,5.45-12.48-.8-16.38ZM43.99,16.82s-.07-.02-.11-.03c.04.01.07.02.11.03.02,0,.05.01.08.02-.03,0-.05-.01-.08-.02ZM43.85,16.78s-.06-.02-.09-.04c.03.01.06.03.09.04ZM43.74,16.72s-.03-.02-.04-.02c.01,0,.03.02.04.02ZM43.67,16.69c-.05-.03-.1-.07-.14-.1.05.04.09.07.14.1ZM43.48,16.54s-.04-.04-.06-.05c.02.02.04.04.06.05ZM44.19,16.86s-.05,0-.08,0c.03,0,.05,0,.08,0,.03,0,.05,0,.08,0-.03,0-.05,0-.08,0ZM44.48,16.85s-.09,0-.13.01c.04,0,.09,0,.13-.01ZM44.77,16.77c.06-.02.11-.05.16-.08.03-.02.06-.04.09-.06s.05-.05.08-.07c-.03.03-.05.05-.08.07s-.06.04-.09.06c-.05.03-.1.06-.16.08ZM45.19,16.45s-.05.06-.07.08c.02-.03.05-.05.07-.08.59-.76.43-2.34-.35-2.95.78.6.95,2.19.35,2.95ZM44.74,13.43s.05.04.08.06c-.03-.02-.05-.04-.08-.06ZM44.59,13.35s.03.01.04.02c-.01,0-.03-.01-.04-.02ZM44.66,13.38s.02.01.03.02c-.01,0-.02-.01-.03-.02ZM40.16,17.7s-.03,0-.05,0c.02,0,.03,0,.05,0ZM40.09,17.69c-.21-.03-.43-.06-.65-.09.22.03.44.06.65.09ZM41.88,8.72c-.33.04-.58-.1-.8-.31.22.21.47.35.8.31.13-.13-.3-.85-.7-1.43.4.58.83,1.3.7,1.43ZM39.5,5.83h0c.32.11.64.3.9.51-.26-.21-.57-.4-.9-.51ZM44.29,18.69c.13,1.13-.42,2.41-1.13,3.27.71-.86,1.25-2.14,1.13-3.27ZM39.01,4.1c1.07.97,3.33,1.51,4.71,2.22,1.4.72,2.73,1.73,3.8,2.94-1.07-1.21-2.41-2.22-3.8-2.94-1.38-.71-3.64-1.26-4.71-2.22-.05-.05-.11-.1-.16-.16.05.06.11.11.16.16ZM47.54,9.28s0,0,0,0c0,0,0,0,0,0ZM37.71,2.71c.17.09.35.27.52.47-.17-.2-.34-.38-.52-.47-.34-.19-.59-.19-.78-.09.19-.1.44-.09.78.09ZM31.15,21.88c-.22-.14-.43-.29-.62-.45h0c.2.15.4.3.62.45,1.74,1.14,5,1.69,7.03,1.14-2.03.55-5.29,0-7.03-1.14ZM38.46,22.93s0-.04-.01-.07c-.02-.04-.52-.42-.63-.56-.54-.63-.99-1.52-1.1-2.41,0,0,0,0,0,0,.11.89.56,1.78,1.1,2.41.12.14.62.52.63.56.02.03.02.06.01.07Z"/>
        <path class="cls-5" d="M36.54,25.58c-2.08,0-4.47-.33-6.41-1.48-.95-.56-1.76-1.21-2.44-1.94-1.01-.35-1.96-.83-2.83-1.45-.96-.68-1.81-1.5-2.52-2.44-.72-.95-1.27-2.01-1.66-3.13-.4-1.16-.6-2.38-.6-3.62,0-1.52.3-2.99.89-4.38.57-1.34,1.38-2.54,2.41-3.58,1.03-1.03,2.24-1.84,3.58-2.41,1.39-.59,2.86-.89,4.38-.89,1.28,0,2.52.21,3.71.63.83-.82,2.08-1.13,3.27-.7.73.26,1.21.83,1.6,1.28.13.14.24.28.33.36.68.62,1.85,1.12,2.98,1.6.92.39,1.86.79,2.69,1.31h0c.99.62,1.91,1.35,2.72,2.19.8.82,1.5,1.73,2.07,2.69.58.98,1.01,2,1.28,3.02.29,1.08.4,2.15.33,3.18-.11,1.6-.63,3.06-1.56,4.34-.99,1.35-2.39,2.45-4.19,3.25-1.11.5-2.4.95-3.75,1.3-1.45.38-2.9.64-4.32.76-.6.05-1.27.09-1.97.09ZM38.11,22.78l.03.11s.08,0,.13-.01c.02,0,.04,0,.06,0l-.21-.09ZM38.79,21.41c.06.05.21.18.28.24.27.22.42.35.55.6h0c.07.14.12.29.14.44,1.13-.18,2.28-.44,3.36-.77l-.96-.8c.57-.69.91-1.63.83-2.29l2.61-.3c.11.92-.1,1.84-.44,2.65.11-.05.23-.1.34-.15,2.6-1.17,4.05-3.03,4.21-5.37.14-2.06-.76-4.34-2.34-6.23l-.81.71h0s0,0,0,0l.81-.71s0,0,0,0l-.81.72h0s-.03-.03-.04-.05c-.93-1.03-2.09-1.93-3.38-2.6-.11-.06-.24-.12-.36-.17.05.08.1.17.14.25.12.22.2.41.25.59.24.81-.15,1.31-.33,1.49l-.32.32-.45.06c-.48.06-1.2,0-1.88-.67l.45-.47c-.04-.1-.19-.38-.52-.85l1.64-1.13c-.08-.03-.17-.07-.26-.1-.37-.14-.74-.28-1.11-.44l-.81.99c-.16-.13-.34-.24-.49-.29l-.51-.17-.15-.29-2.46-2.46-.97-.45c-1.14-.53-2.37-.8-3.64-.8-4.76,0-8.63,3.87-8.63,8.63,0,3.82,2.45,7.14,6.1,8.26l.37.11.11.12,1.74.14.31.24c.17.13.35.26.54.38.98.64,2.65,1.07,4.13,1.13-.3-.6-.5-1.24-.58-1.87l-.08-.63.6-.6,1.86-.93.22,1.85c.07.56.36,1.2.77,1.68ZM40.95,7.79c-.39.39-.39.88-.33,1.09l.7-.72-.37-.37ZM41.77,7.42s-.03,0-.05,0l.04.3.24-.25s-.13-.06-.22-.06ZM37.54,3.77l1.09.37.14-.13c-.1-.08-.19-.16-.28-.24-.15-.14-.29-.29-.42-.44l-.52.44h0s0,0,0,0l-.57-1.07c-.09.06-.16.16-.2.26l-.18.49.95.32-.03.02s0,0,0,0h0s.02-.01.03-.02c0,0,0,0,0,0h0ZM37.04,3.85h0s0,0,0,0ZM40,19.01h-.05s.33-2.61.33-2.61h0s.03,0,.03,0l-.32,2.6ZM39.92,19s0,0,0,0h0c-.05,0-.1-.01-.15-.02-.07,0-.14-.02-.21-.03-.1-.01-.2-.03-.3-.04l.34-2.6c.11.01.22.03.32.04.11.02.22.03.32.04,0,0,0,0,.01,0,0,0,0,0,0,0l-.33,2.6ZM44.23,18.17c-.06,0-.11,0-.16,0-.05,0-.1-.01-.15-.02,0,0,0,0,0,0,0,0,0,0,0,0l.38-2.41h0s-.46,2.39-.46,2.39c-.05-.01-.11-.02-.16-.04h0s-.03,0-.04-.01c-.06-.02-.13-.04-.19-.06l.84-2.29h0s-.91,2.27-.91,2.27c-.06-.02-.12-.05-.18-.08l1.09-2.19h0s-1.15,2.16-1.15,2.16c-.03-.02-.06-.03-.09-.05l1.23-2.11h0s-1.28,2.08-1.28,2.08c-.1-.06-.2-.13-.29-.21l1.55-1.89h0s-1.64,1.81-1.64,1.81c-.04-.03-.08-.07-.11-.11l1.74-1.72-.04-.03-.03-.02s0,0,0,0c.03-.04.08-.19.08-.4,0-.05,0-.11,0-.17-.03-.3-.15-.49-.19-.52l.05-.06-.05.06h0s0,0,0,0l.05-.08h0s-.06.09-.06.09h0s.06-.11.06-.11h0s-.06.11-.06.11c0,0,0,0,0,0l.06-.13,1.52-1.96c.64.49,1.07,1.32,1.19,2.27.02.17.03.34.03.51,0,.78-.22,1.49-.64,2.02h0c-.04.06-.09.11-.14.16,0,0,0,0,0,0l-1.71-1.61v-.03s-.02,0-.02,0v.02s-.03-.03-.03-.03h0s-.01-.02-.01-.02h0s0,.01,0,.01h0s-.07,2.41-.07,2.41ZM44.34,15.78h0s0-.01,0-.01h0ZM44.34,15.77h0s0,0,0,0h0ZM44.3,15.74h.01s0,0,0,0h-.01s0,0,0,0ZM44.3,15.73h.01s0-.05,0-.05v-.02s-.01.07-.01.07ZM44.28,15.73h0s0,0,0,0h0s0,0,0,0ZM44.28,15.73h0s0,0,0,0h0s0,0,0,0ZM44.27,15.73h0s0,0,0,0h0s0,0,0,0ZM44.27,15.72h0s0,0,0,0h0s0,0,0,0ZM44.28,15.72h0s0-.04,0-.04h0s0,0,0,0h0s0,0,0,0h0s0-.01,0-.01h0s0,0,0,0h0s-.02.05-.02.05h0s.02-.04.02-.04h0s-.02.04-.02.04h0s.01-.03.01-.03v.03s-.01,0-.01,0v-.04s0,.04,0,.04ZM44.27,15.72h0s0,0,0,0h0s0,0,0,0ZM44.27,15.72h0s0,0,0,0h0s0,0,0,0ZM44.26,15.72h0s0,0,0,0h0s0,0,0,0ZM44.26,15.72h0s0,0,0,0h0s0,0,0,0ZM44.24,15.7h0s0,0,0,0h0ZM44.24,15.69h0s.04-.04.04-.04h0s-.05.04-.05.04ZM44.24,15.7h0s0,0,0,0h0ZM44.19,15.66l.04.03h0s0,0,0,0l-.03-.02ZM44.17,15.62l.06.06.05-.05-.03-.06s-.03.02-.05.03c0,0-.02.01-.02.02,0,0-.01,0-.02.01ZM44.16,15.64l.06.04-.05-.05s0,0,0,0ZM44.3,15.67h0s0,0,0,0h0s0,0,0,0ZM44.3,15.66h0s0-.01,0-.01h0ZM44.3,15.63h0s0,0,0,0h0s0,0,0,0ZM44.32,15.61h0s0,0,0,0v-.02s0,.01,0,.01ZM44.31,15.59v.02s0,0,0,0v-.02ZM44.3,15.55v.06s0-.03,0-.03v-.03s0,0,0,0h0ZM44.34,15.59v.02s0,0,0,0v-.02s0,0,0,0ZM44.32,15.55v.04s0,0,0,0v-.04s0,0,0,0h0s0,0,0,0ZM44.35,15.57v.02s0-.02,0-.02c0,0,0,0,0,0h0ZM44.34,15.56v.03s0-.02,0-.02h0s0,0-.01-.01ZM44.4,18.17l-.08-2.41.04.04.3,2.35c-.08.01-.17.02-.25.02ZM45.29,17.98l-.92-2.16,1.65,1.66c-.06.06-.11.11-.17.16-.06.05-.13.1-.19.14-.11.08-.24.14-.36.2ZM44.29,15.68h0s0,0,0,0ZM44.1,14.46l.03-.05-.02.03v.02ZM44.12,14.43l.02-.03v.02s-.02,0-.02,0ZM44.13,14.42v-.02s1.32-2.08,1.32-2.08c.06.04.11.07.17.12l-1.48,1.98ZM44.13,14.41h0s0,0,0,0ZM44.14,14.39h0s1.12-2.17,1.12-2.17c.02.01.05.02.07.04l-1.19,2.13ZM44.15,14.37l.96-2.23s.06.03.09.04l-1.05,2.19Z"/>
      </g>
      <g>
        <path class="cls-1" d="M41.29,11.52c0,5.49-4.45,9.94-9.94,9.94s-9.94-4.45-9.94-9.94S25.85,1.58,31.34,1.58s9.94,4.45,9.94,9.94"/>
        <g>
          <path class="cls-7" d="M49.29,8.96c.37.33,1.05.21,1.13,1.01.06.63-.42.99-.43,1.31,0,.19.44,1.28.51,1.68,2.42,13.42-21.06,14.52-24.56,5.45-2.62-6.8,2.67-12.13,7.34-16.18,1.36-.54,2.05.35,2.79.31.41-.03,1.06-.69,1.55-.81,1.46-.38,2.16.84,2.7.78.19-.02.71-.44,1.05-.57,2.27-.85,2.58,1.01,3.83,2.36.87.94,1.93,1.77,2.8,2.79.39.46.99,1.6,1.29,1.87M31.55,6.01c-1.31,1.34-2.87,2.52-3.62,4.32,1.41-.26,2.78-.72,4.21-.86,1.31-.13,3.36-.19,4.65.02,1.15.18,2.64.97,3.72.85.66-.08,1.23-.6,1.84-.81,1.54-.53,3.52-.48,5.14-.52l-1.54-2.06c-1.06-.31-2.9-3.57-3.54-3.67-.92-.15-1.52.84-2.21.88-.79.05-1.02-.96-1.75-1.04-1.36-.15-1.4.98-2.21,1.05-.88.08-1.34-.91-2.47-.57-.17.05-1.87,2.06-2.22,2.41M49.25,13.71c-.24-.31-.26.15-.31.21-1.91,2.99-5.58,3.28-7.36.03-.29-.53-.98-3.15-1.87-1.92-.34.47-.6,1.78-1.07,2.46-.57.82-1.66,1.41-2.62,1.65-2.4.59-3.91.13-4.82-2.25-.22-.57-.43-2.37-.87-2.51-.36-.11-2.85.16-3.06.41-.43.51-.58,3.32-.51,4.04.84,9.25,19.03,8.79,21.87,1.88.27-.65.96-3.57.62-4.01"/>
          <path class="cls-6" d="M49.25,13.71c.34.44-.36,3.36-.62,4.01-2.84,6.91-21.03,7.37-21.87-1.88-.07-.72.08-3.53.51-4.04.21-.25,2.7-.52,3.06-.41.45.14.66,1.94.87,2.51.91,2.38,2.42,2.83,4.82,2.25.95-.23,2.05-.82,2.62-1.65.47-.68.73-1.99,1.07-2.46.89-1.23,1.59,1.39,1.87,1.92,1.78,3.25,5.46,2.96,7.36-.03.04-.07.07-.52.31-.21M43.04,16.68c-.55-.55-3.43.22-4.3.27-1.04.06-2.83-.36-3.65-.12-1.39.4-.33,3.2.34,4.01,2.06,2.47,5.52,1.46,7.03-1.05.38-.64,1.17-2.51.58-3.1"/>
          <path class="cls-6" d="M31.55,6.01c-1.31,1.34-2.87,2.52-3.62,4.32,1.41-.26,2.78-.72,4.21-.86,1.31-.13,3.36-.19,4.65.02,1.15.18,2.64.97,3.72.85.66-.08,1.23-.6,1.84-.81,1.54-.53,3.52-.48,5.14-.52l-1.54-2.06c-1.06-.31-2.9-3.57-3.54-3.67-.92-.15-1.52.84-2.21.88-.79.05-1.02-.96-1.75-1.04-1.36-.15-1.4.98-2.21,1.05-.88.08-1.34-.91-2.47-.57-.17.05-1.87,2.06-2.22,2.41"/>
          <path class="cls-3" d="M43.04,16.68c.59.59-.2,2.46-.58,3.1-1.51,2.51-4.97,3.52-7.03,1.05-.67-.81-1.73-3.61-.34-4.01.82-.24,2.61.18,3.65.12.86-.05,3.74-.82,4.3-.26M35.9,18.6c-.45.37.37,1.49.69,1.81,1.23,1.23,4.08.81,3.61-.22-.44-.98-3.37-2.36-4.31-1.59"/>
          <path class="cls-8" d="M35.9,18.6c-.45.37.37,1.49.69,1.81,1.23,1.23,4.08.81,3.61-.22-.44-.98-3.37-2.36-4.31-1.59"/>
          <path class="cls-7" d="M36.15,4.73c.16,0,.17.21.15.32-.05.28-.87,2.48-1.01,2.67-.14.19-.48.31-.53.01-.05-.3.39-1.4.53-1.74.13-.31.48-1.28.87-1.26"/>
          <path class="cls-7" d="M42.38,7.3c-.62,0-.8-.77-1.11-1.21-.18-.26-.89-.93-.93-1.13-.02-.08-.01-.15,0-.23.48.01.99.41,1.28.78.16.21.94,1.65.75,1.79"/>
          <path class="cls-7" d="M38.35,4.47c.18-.01.34.4.4.55.21.46.61,1.74.3,2.16-.11.15-.3.19-.39,0-.09-.73-.41-1.5-.51-2.21-.02-.16-.04-.48.2-.5"/>
        </g>
      </g>
    </g>
    <g>
      <g>
        <path class="cls-2" d="M4.86,25.58c.7,0,1.31.17,1.84.52.5.33.76.74.76,1.24,0,.34-.12.62-.35.83-.22.2-.48.3-.79.3-.32,0-.57-.12-.73-.35-.05-.07-.12-.26-.22-.57-.11-.33-.31-.49-.6-.49-.21,0-.4.09-.54.28s-.22.42-.22.69c0,.47.17.88.5,1.25.27.29.62.44,1.03.44.2,0,.36-.02.49-.05s.31-.1.52-.2c.05-.03.12-.04.18-.04.13,0,.25.06.35.19s.15.27.15.44-.07.36-.22.55-.33.36-.57.51c-.51.31-1.11.47-1.8.47-.8,0-1.49-.23-2.06-.7-.73-.59-1.09-1.35-1.09-2.27s.34-1.61,1.01-2.19c.64-.55,1.43-.83,2.35-.83Z"/>
        <path class="cls-5" d="M4.65,33.07c-1.16,0-2.17-.35-3.01-1.05-1.07-.87-1.63-2.06-1.63-3.42s.53-2.47,1.54-3.33c.92-.79,2.04-1.19,3.33-1.19.99,0,1.88.26,2.66.77.93.61,1.43,1.49,1.43,2.49,0,.6-.18,1.15-.53,1.6.2.33.3.71.3,1.11,0,.51-.17.99-.52,1.45-.26.34-.59.64-.98.88-.75.46-1.62.69-2.59.69ZM7.22,30.8s-.03.02-.05.02c.02,0,.03-.01.05-.02Z"/>
      </g>
      <g>
        <path class="cls-2" d="M10.45,25.91v3.18c0,.68.22,1.02.67,1.02.11,0,.22-.03.33-.1s.19-.14.23-.24c.09-.19.13-.61.13-1.25s-.02-1.08-.06-1.31c-.02-.1-.04-.17-.08-.21s-.11-.1-.22-.16c-.22-.12-.33-.27-.33-.45,0-.24.19-.41.57-.5.73-.18,1.44-.27,2.15-.27.39,0,.59.21.59.63,0,.04,0,.13,0,.26,0,.19-.01.42-.02.69v2.58c0,.13.11.25.34.36.19.09.29.23.29.41,0,.35-.42.62-1.25.81-.49.11-.96.17-1.42.17-.19,0-.32-.02-.38-.06s-.11-.13-.12-.25c-.02-.24-.09-.36-.22-.36-.05,0-.09.01-.13.03s-.16.1-.36.24c-.39.27-.82.4-1.27.4-.75,0-1.28-.22-1.59-.65-.26-.36-.39-.97-.39-1.83,0-.32,0-.59,0-.82v-.27c0-.34-.03-.58-.09-.74s-.17-.28-.33-.37c-.15-.08-.25-.14-.29-.19s-.06-.11-.06-.19c0-.3.22-.49.67-.59.77-.17,1.53-.25,2.3-.25.23,0,.35.1.35.29Z"/>
        <path class="cls-5" d="M12.37,33.04c-.29,0-.72-.03-1.13-.26-.43.17-.88.26-1.35.26-1.57,0-2.39-.7-2.81-1.28-.45-.62-.67-1.51-.67-2.7,0-.33,0-.61,0-.85v-.24h0c-.13-.1-.24-.2-.34-.31-.28-.32-.43-.73-.43-1.18,0-.8.49-1.76,1.86-2.06.86-.19,1.75-.29,2.62-.29.42,0,.81.13,1.11.34.04-.01.07-.02.11-.03.84-.21,1.68-.31,2.51-.31,1.23,0,2.09.88,2.09,2.13v.31c-.01.2-.02.41-.02.66v1.92c.4.37.63.87.63,1.42,0,.79-.42,1.82-2.41,2.28-.59.14-1.19.21-1.75.21ZM12.15,25.51h0s0,0,0,0Z"/>
      </g>
      <g>
        <path class="cls-2" d="M17.12,25.58c.2,0,.51.04.96.13.09.02.16.02.22.02.07,0,.2-.04.39-.11.09-.04.17-.05.23-.05.18,0,.36.12.54.35.15.18.27.38.36.6s.14.41.14.57-.05.29-.16.39-.25.16-.41.16c-.14,0-.26-.03-.37-.1s-.28-.21-.52-.44c-.25-.24-.46-.36-.62-.36-.11,0-.2.04-.28.12s-.12.17-.12.28c0,.19.18.37.55.54.66.3,1.17.62,1.52.97.3.3.45.66.45,1.09,0,.54-.24,1-.71,1.36-.41.32-.91.47-1.51.47-.15,0-.43-.03-.83-.08-.38-.04-.59-.06-.64-.06-.05,0-.11,0-.18.02-.11.02-.2.02-.25.02-.18,0-.33-.05-.43-.14-.16-.14-.31-.37-.45-.68s-.21-.58-.21-.8c0-.36.14-.54.42-.54.11,0,.21.04.3.11s.28.26.58.58c.16.17.29.29.4.35s.22.1.34.1c.13,0,.23-.03.31-.1s.12-.16.12-.27c0-.18-.15-.34-.45-.48-.63-.31-1.08-.63-1.36-.96s-.42-.71-.42-1.14c0-.46.14-.87.43-1.2.41-.48.96-.72,1.66-.72Z"/>
        <path class="cls-5" d="M17.77,33.07c-.19,0-.53-.03-1.02-.09-.2-.02-.35-.04-.44-.05-.22.03-.35.04-.43.04-.7,0-1.16-.28-1.43-.52-.33-.3-.6-.69-.82-1.2-.22-.51-.33-.97-.33-1.4,0-.54.16-.97.41-1.3-.11-.33-.17-.69-.17-1.05,0-.82.27-1.57.78-2.17.69-.82,1.66-1.25,2.81-1.25.27,0,.61.04,1.08.13.23-.09.47-.13.71-.13.45,0,1.12.16,1.72.91.23.28.42.6.57.95.18.41.26.79.26,1.16,0,.42-.12.82-.35,1.15.25.45.38.95.38,1.49,0,1.02-.45,1.9-1.31,2.55-.67.52-1.48.78-2.42.78Z"/>
      </g>
      <g>
        <path class="cls-2" d="M23.41,27.12v1.98c0,.23.06.43.17.57s.26.22.44.22c.15,0,.35-.07.6-.21.06-.04.12-.05.18-.05.09,0,.18.06.26.17s.12.24.12.37c0,.24-.13.47-.4.7-.55.47-1.23.71-2.02.71-.62,0-1.13-.18-1.51-.53s-.57-.82-.57-1.4v-2.71c0-.09-.01-.15-.03-.17s-.08-.03-.17-.03h-.6c-.11,0-.19-.02-.22-.06s-.05-.12-.05-.26v-.26c0-.12.05-.2.13-.26l2.68-1.69c.07-.04.15-.05.25-.05h.47c.1,0,.16.02.2.07s.05.13.05.27v.79c0,.12.02.19.06.23s.12.05.24.05h1.08c.14,0,.24.03.28.08s.06.17.06.34v.35c0,.19-.03.32-.08.39s-.15.11-.3.11h-1.06c-.11,0-.18.02-.22.06s-.06.11-.06.22Z"/>
        <path class="cls-5" d="M22.76,33.07c-1,0-1.88-.32-2.53-.93-.68-.64-1.04-1.5-1.04-2.49v-1.53c-.31-.12-.53-.3-.67-.47-.4-.47-.4-1.04-.4-1.23v-.26c.02-.66.32-1.2.83-1.52l2.79-1.75c.29-.15.6-.23.95-.23h.47c.57,0,1.08.25,1.4.68.18.25.27.51.31.73.71.02,1.13.35,1.36.63.4.49.4,1.09.4,1.28v.35c0,.53-.13.95-.39,1.29-.14.18-.41.46-.85.6.35.13.67.37.9.71.25.36.38.79.38,1.22,0,.49-.16,1.2-.93,1.85-.82.7-1.83,1.06-2.98,1.06ZM25.4,30.97s-.04.02-.06.03c.02-.01.04-.02.06-.03ZM22.06,26.23s.02.04.02.06c.01-.03.03-.05.04-.08,0,0,0,0,0-.01l-.06.04Z"/>
      </g>
      <g>
        <path class="cls-2" d="M28.44,25.57c.71,0,1.34.19,1.88.56.39.27.7.61.93,1.04.24.45.36.91.36,1.39,0,.85-.39,1.57-1.17,2.16-.74.57-1.59.85-2.55.85s-1.69-.27-2.27-.8c-.56-.52-.84-1.19-.84-2.02,0-.92.34-1.68,1.03-2.26.72-.62,1.59-.93,2.62-.93ZM27.97,26.93c-.17,0-.31.06-.41.19s-.16.3-.16.51c0,.23.04.55.13.96s.19.76.31,1.08c.12.32.32.48.59.48.35,0,.52-.22.52-.66,0-.33-.04-.7-.13-1.12s-.19-.76-.32-1.02c-.13-.27-.31-.4-.54-.41Z"/>
        <path class="cls-5" d="M27.9,33.07c-1.32,0-2.42-.4-3.28-1.19-.87-.8-1.33-1.88-1.33-3.12,0-1.36.54-2.53,1.56-3.4.99-.85,2.2-1.28,3.59-1.28,1.02,0,1.94.28,2.73.82.58.4,1.05.92,1.4,1.55.37.67.55,1.38.55,2.12,0,.92-.3,2.25-1.76,3.35-1.01.77-2.17,1.16-3.46,1.16ZM29.25,29.11s0,0,0,0c0,0,0,0,0,0Z"/>
      </g>
      <g>
        <path class="cls-2" d="M34.28,25.62c.22,0,.33.16.33.47v.1c0,.06,0,.11,0,.15,0,.21.06.32.19.32.07,0,.17-.08.31-.25.21-.24.48-.43.8-.58s.65-.21.98-.21c.65,0,1.11.24,1.36.71.1.18.18.26.24.26.04,0,.14-.08.3-.23.51-.5,1.08-.74,1.73-.74.5,0,.92.14,1.24.42.34.29.5.72.5,1.3,0,.12,0,.34-.01.63,0,.1-.01.41-.01.92,0,.33,0,.56,0,.69,0,.08,0,.14,0,.18,0,.25.08.47.23.66.09.11.15.19.17.23s.03.09.03.15c0,.5-.59.75-1.76.75-.52,0-.94-.06-1.26-.19s-.48-.29-.48-.49c0-.08.01-.14.03-.18s.1-.15.23-.33c.12-.16.18-.69.18-1.6,0-.53-.04-.89-.11-1.1-.09-.25-.26-.37-.52-.37-.13,0-.24.04-.34.12s-.17.18-.2.3c-.04.14-.05.52-.06,1.12.01.66.03,1.05.06,1.2s.13.34.3.59c.04.06.06.13.06.22,0,.46-.61.7-1.82.7-.73,0-1.22-.05-1.48-.16-.2-.09-.3-.24-.3-.46,0-.1.01-.17.04-.21s.11-.13.26-.27c.09-.08.14-.16.17-.23s.04-.2.06-.4c.03-.43.04-.86.04-1.3,0-.77-.2-1.15-.59-1.15-.29,0-.47.16-.52.49-.05.31-.07.75-.07,1.32,0,.43,0,.71.03.84s.07.27.14.42c.09.17.14.3.14.41,0,.25-.18.43-.53.53-.39.11-.81.16-1.28.16-.6,0-1.04-.05-1.32-.14s-.42-.25-.42-.45c0-.08.02-.14.06-.2s.12-.14.25-.26c.18-.16.28-.38.3-.66.04-.48.06-.99.06-1.51,0-.37-.02-.63-.06-.78s-.12-.26-.24-.35c-.12-.09-.19-.16-.23-.21s-.05-.11-.05-.19c0-.26.21-.47.62-.62.99-.36,1.73-.54,2.22-.54Z"/>
        <path class="cls-5" d="M40.9,33.04c-.72,0-1.31-.1-1.8-.29-.04-.01-.07-.03-.11-.04-.48.2-1.13.33-2.02.33-.96,0-1.57-.08-2.03-.27-.06.02-.12.04-.19.06-.52.14-1.08.21-1.67.21-.79,0-1.36-.07-1.81-.22-1.06-.36-1.44-1.21-1.44-1.87,0-.38.11-.74.31-1.04.08-.12.18-.24.32-.37.03-.39.04-.79.04-1.21,0-.07,0-.13,0-.19-.1-.09-.17-.18-.24-.28-.21-.3-.33-.67-.33-1.06,0-.43.16-1.49,1.59-2.03,1.19-.43,2.05-.63,2.73-.63h.01c.37,0,.74.11,1.05.33,1.14-.5,2.46-.41,3.33.16,1.36-.76,3.04-.61,4.08.29.46.4,1.02,1.15,1.02,2.43,0,.13,0,.36-.01.67,0,.18-.01.45-.01.88,0,.33,0,.57,0,.71.11.14.17.23.2.29.16.27.23.57.23.9,0,.68-.32,2.25-3.26,2.25ZM43.62,29.45s0,0,0,0c0,0,0,0,0,0ZM30.81,28.37s.01.01.02.02c0,0-.02-.01-.02-.02Z"/>
      </g>
      <g>
        <path class="cls-2" d="M47.83,28.79h-2.75c-.12,0-.18.05-.18.16,0,.25.14.49.41.72s.57.34.89.34c.19,0,.4-.04.62-.11s.42-.16.57-.27c.13-.09.24-.14.32-.14.1,0,.2.06.3.19s.15.25.15.39c0,.28-.18.55-.53.81-.62.46-1.34.7-2.15.7s-1.51-.24-2.06-.71c-.27-.23-.49-.52-.67-.85-.23-.44-.35-.91-.35-1.39,0-.66.2-1.25.6-1.77.34-.45.78-.79,1.31-1.01.4-.17.83-.25,1.29-.25.74,0,1.37.21,1.89.63.26.21.47.46.63.75.18.33.28.65.28.96,0,.25-.05.46-.16.62s-.24.24-.41.24ZM45.23,27.7h.59c.25,0,.38-.12.38-.35,0-.21-.06-.38-.18-.52s-.28-.2-.47-.2c-.22,0-.39.09-.52.26-.12.16-.18.32-.18.49,0,.12.03.2.08.25s.16.07.3.07Z"/>
        <path class="cls-5" d="M45.47,33.07c-1.19,0-2.21-.36-3.04-1.08-.42-.36-.75-.79-1.02-1.29-.35-.66-.52-1.37-.52-2.1,0-.99.3-1.89.9-2.68.5-.66,1.15-1.16,1.93-1.49.58-.24,1.21-.37,1.88-.37,1.09,0,2.05.33,2.84.97.41.33.75.73,1,1.19.31.55.46,1.12.46,1.69,0,.54-.13,1.01-.38,1.42.09.23.13.47.13.72,0,.54-.2,1.32-1.13,2.02-.88.66-1.91.99-3.05.99ZM44.69,27.31s0,.02,0,.03c.12-.03.25-.04.38-.04h1.27s0-.03,0-.05c-.17-.09-.4-.16-.74-.16-.26,0-.5.04-.71.13-.07.03-.13.06-.19.09Z"/>
      </g>
      <g>
        <path class="cls-2" d="M50.91,25.62c.21,0,.33.03.38.09s.08.25.12.56c.02.17.08.26.18.26.08,0,.15-.06.22-.17.31-.49.72-.73,1.22-.73.36,0,.65.12.87.35.11.11.2.26.27.44s.11.35.11.51c0,.18-.04.37-.13.57s-.2.35-.33.48c-.25.24-.56.36-.92.36-.2,0-.37-.04-.5-.11s-.31-.21-.53-.43c-.08-.08-.16-.12-.23-.12-.11,0-.18.06-.21.18s-.05.38-.05.78c0,.59.02.99.06,1.21.03.12.07.2.11.24s.15.09.31.14c.35.11.53.29.53.55,0,.16-.06.3-.17.42s-.26.2-.45.24c-.38.08-.93.12-1.65.12s-1.22-.06-1.58-.18c-.32-.11-.48-.3-.48-.57,0-.2.12-.38.35-.54.11-.07.19-.14.23-.2s.07-.14.09-.25c.06-.36.09-1.01.09-1.97,0-.18-.02-.3-.06-.38s-.12-.14-.23-.18c-.28-.11-.42-.27-.42-.47,0-.19.1-.35.29-.48s.51-.27.96-.4c.6-.18,1.11-.27,1.54-.28Z"/>
        <path class="cls-5" d="M50.13,33.03c-.86,0-1.54-.08-2.05-.26-.93-.32-1.5-1.08-1.5-1.99,0-.36.1-1.01.73-1.57.02-.2.03-.5.04-.95-.45-.37-.71-.9-.71-1.49,0-.67.34-1.3.92-1.71.33-.23.78-.43,1.4-.61.74-.22,1.38-.33,1.95-.34h.01c.4,0,.74.07,1.03.22.34-.14.71-.22,1.1-.22.76,0,1.43.27,1.94.79.26.26.45.58.59.94.14.35.21.71.21,1.06,0,.39-.09.79-.26,1.17-.17.38-.4.71-.69.98-.34.33-.76.55-1.23.67.21.33.29.7.29,1.03,0,.54-.21,1.06-.58,1.45-.32.34-.75.57-1.23.67-.48.1-1.12.15-1.96.15ZM47.26,29.55s0,.01,0,.02c0,0,0-.01,0-.02ZM50.82,28.85h0s0,0,0,0ZM50.91,25.62v.71s0,0,0,0v-.7ZM49.1,25.85s0,0,0,0c0,0,0,0,0,0ZM50.56,25.54v.02s0-.02,0-.02Z"/>
      </g>
      <g>
        <path class="cls-2" d="M56.98,26.77v1.88c0,.83.01,1.32.04,1.45s.12.24.29.32c.14.06.24.12.29.18s.07.13.07.23c0,.13-.05.25-.14.35s-.21.18-.37.22c-.28.09-.76.13-1.42.13-.75,0-1.28-.06-1.59-.17-.14-.05-.26-.13-.35-.24s-.13-.22-.13-.34c0-.09.02-.17.07-.22s.16-.11.32-.18c.15-.07.25-.25.28-.54.06-.51.09-1.23.09-2.17s-.03-1.57-.08-1.84-.19-.48-.41-.61c-.16-.09-.28-.18-.34-.27s-.09-.19-.09-.31c0-.19.09-.36.28-.5s.48-.27.88-.4c.27-.08.62-.16,1.05-.23s.74-.11.94-.11c.31,0,.46.19.46.57,0,.12-.02.41-.06.86-.05.7-.08,1.34-.09,1.92Z"/>
        <path class="cls-5" d="M55.75,33.03c-.97,0-1.62-.08-2.11-.26-.38-.14-.71-.37-.97-.68-.32-.38-.48-.83-.48-1.3s.17-.93.49-1.26c.07-.07.14-.14.22-.2.03-.43.05-.98.05-1.66,0-.72-.02-1.12-.03-1.33-.21-.15-.38-.32-.51-.5-.25-.34-.37-.75-.37-1.18,0-.66.3-1.26.86-1.69.34-.26.77-.47,1.37-.65.33-.1.73-.19,1.23-.28.53-.09.9-.13,1.19-.13.98,0,1.96.71,1.96,2.07,0,.14-.02.47-.06.99-.05.64-.07,1.25-.08,1.8v1.87c0,.31,0,.55,0,.73.08.07.16.14.23.22.21.23.45.63.45,1.23,0,.49-.17.96-.51,1.34-.28.32-.66.56-1.09.68-.4.12-.99.19-1.83.19Z"/>
      </g>
      <g>
        <path class="cls-2" d="M61.04,25.57c.71,0,1.34.19,1.88.56.39.27.7.61.93,1.04.24.45.36.91.36,1.39,0,.85-.39,1.57-1.17,2.16-.74.57-1.59.85-2.55.85s-1.69-.27-2.27-.8c-.56-.52-.84-1.19-.84-2.02,0-.92.34-1.68,1.03-2.26.72-.62,1.59-.93,2.62-.93ZM60.58,26.93c-.17,0-.31.06-.41.19s-.16.3-.16.51c0,.23.04.55.13.96s.19.76.31,1.08c.12.32.32.48.59.48.35,0,.52-.22.52-.66,0-.33-.04-.7-.13-1.12s-.19-.76-.32-1.02c-.13-.27-.31-.4-.54-.41Z"/>
        <path class="cls-5" d="M60.51,33.07c-1.32,0-2.42-.4-3.28-1.19-.87-.8-1.33-1.88-1.33-3.12,0-1.36.54-2.53,1.56-3.4.99-.85,2.2-1.28,3.59-1.28,1.02,0,1.94.28,2.73.82.58.4,1.05.92,1.4,1.55.37.67.55,1.38.55,2.12,0,.92-.3,2.25-1.76,3.35-1.01.77-2.17,1.16-3.46,1.16ZM61.85,29.11s0,0,0,0c0,0,0,0,0,0Z"/>
      </g>
      <g>
        <path class="cls-2" d="M69.92,27.41l-1.52,2.95c-.23.46-.43.77-.6.95s-.34.27-.53.27-.33-.07-.45-.2c-.24-.27-.45-.57-.63-.9l-1.66-3.16c-.09-.17-.18-.3-.26-.37s-.2-.13-.35-.17c-.3-.09-.45-.25-.45-.48s.18-.41.55-.52.95-.16,1.74-.16c.66,0,1.15.05,1.47.14s.47.24.47.44c0,.14-.07.28-.22.4-.09.09-.15.15-.18.19s-.04.1-.04.16c0,.13.09.35.26.66.17.3.33.45.48.45.1,0,.18-.04.24-.11s.18-.27.34-.57c.12-.23.18-.4.18-.52,0-.09-.06-.21-.19-.33-.13-.14-.2-.27-.2-.39,0-.19.12-.32.37-.4s.66-.12,1.22-.12c.8,0,1.2.17,1.2.52,0,.2-.14.34-.43.43-.22.07-.37.15-.45.23s-.2.29-.37.62Z"/>
        <path class="cls-5" d="M67.28,33.09c-.62,0-1.19-.26-1.59-.73-.29-.33-.57-.73-.81-1.17l-1.61-3.06c-.81-.33-1.29-1.01-1.29-1.83,0-.35.12-1.51,1.62-1.96.52-.15,1.21-.23,2.17-.23.83,0,1.44.07,1.9.21.11.03.21.07.31.11.09-.04.19-.08.29-.12.41-.14.95-.2,1.69-.2,2.5,0,2.7,1.54,2.7,2.02,0,.65-.36,1.45-1.35,1.82-.02.04-.05.09-.07.14h0s-1.52,2.96-1.52,2.96c-.3.59-.57,1-.83,1.28-.45.48-1.03.75-1.63.75ZM67.93,30.36s.01.01.02.02c0,0-.01-.01-.02-.02ZM63.54,28.23s0,0,0,0c0,0,0,0,0,0ZM67.5,27.58h0s0,0,0,0ZM66.48,25.5s-.01,0-.02.01c0,0,.01,0,.02-.01Z"/>
      </g>
      <g>
        <path class="cls-2" d="M75.75,28.79h-2.75c-.12,0-.18.05-.18.16,0,.25.14.49.41.72s.57.34.89.34c.19,0,.4-.04.62-.11s.42-.16.57-.27c.13-.09.24-.14.32-.14.1,0,.2.06.3.19s.15.25.15.39c0,.28-.18.55-.53.81-.62.46-1.34.7-2.15.7s-1.51-.24-2.06-.71c-.27-.23-.49-.52-.67-.85-.23-.44-.35-.91-.35-1.39,0-.66.2-1.25.6-1.77.34-.45.78-.79,1.31-1.01.4-.17.83-.25,1.29-.25.74,0,1.37.21,1.89.63.26.21.47.46.63.75.18.33.28.65.28.96,0,.25-.05.46-.16.62s-.24.24-.41.24ZM73.15,27.7h.59c.25,0,.38-.12.38-.35,0-.21-.06-.38-.18-.52s-.28-.2-.47-.2c-.22,0-.39.09-.52.26-.12.16-.18.32-.18.49,0,.12.03.2.08.25s.16.07.3.07Z"/>
        <path class="cls-5" d="M73.39,33.07c-1.19,0-2.21-.36-3.04-1.08-.42-.36-.75-.79-1.02-1.29-.35-.66-.52-1.37-.52-2.1,0-.99.3-1.89.9-2.68.5-.66,1.15-1.16,1.93-1.49.58-.24,1.21-.37,1.88-.37,1.09,0,2.05.33,2.84.97.41.33.75.73,1,1.19.31.55.46,1.12.46,1.69,0,.54-.13,1.01-.38,1.42.09.23.13.47.13.72,0,.54-.2,1.32-1.13,2.02-.88.66-1.91.99-3.05.99ZM72.62,27.31s0,.02,0,.03c.12-.03.25-.04.38-.04h1.27s0-.03,0-.05c-.17-.09-.4-.16-.74-.16-.26,0-.5.04-.71.13-.07.03-.13.06-.19.09Z"/>
      </g>
    </g>
    <g>
      <path class="cls-4" d="M4.86,25.58c.7,0,1.31.17,1.84.52.5.33.76.74.76,1.24,0,.34-.12.62-.35.83-.22.2-.48.3-.79.3-.32,0-.57-.12-.73-.35-.05-.07-.12-.26-.22-.57-.11-.33-.31-.49-.6-.49-.21,0-.4.09-.54.28s-.22.42-.22.69c0,.47.17.88.5,1.25.27.29.62.44,1.03.44.2,0,.36-.02.49-.05s.31-.1.52-.2c.05-.03.12-.04.18-.04.13,0,.25.06.35.19s.15.27.15.44-.07.36-.22.55-.33.36-.57.51c-.51.31-1.11.47-1.8.47-.8,0-1.49-.23-2.06-.7-.73-.59-1.09-1.35-1.09-2.27s.34-1.61,1.01-2.19c.64-.55,1.43-.83,2.35-.83Z"/>
      <path class="cls-4" d="M10.45,25.91v3.18c0,.68.22,1.02.67,1.02.11,0,.22-.03.33-.1s.19-.14.23-.24c.09-.19.13-.61.13-1.25s-.02-1.08-.06-1.31c-.02-.1-.04-.17-.08-.21s-.11-.1-.22-.16c-.22-.12-.33-.27-.33-.45,0-.24.19-.41.57-.5.73-.18,1.44-.27,2.15-.27.39,0,.59.21.59.63,0,.04,0,.13,0,.26,0,.19-.01.42-.02.69v2.58c0,.13.11.25.34.36.19.09.29.23.29.41,0,.35-.42.62-1.25.81-.49.11-.96.17-1.42.17-.19,0-.32-.02-.38-.06s-.11-.13-.12-.25c-.02-.24-.09-.36-.22-.36-.05,0-.09.01-.13.03s-.16.1-.36.24c-.39.27-.82.4-1.27.4-.75,0-1.28-.22-1.59-.65-.26-.36-.39-.97-.39-1.83,0-.32,0-.59,0-.82v-.27c0-.34-.03-.58-.09-.74s-.17-.28-.33-.37c-.15-.08-.25-.14-.29-.19s-.06-.11-.06-.19c0-.3.22-.49.67-.59.77-.17,1.53-.25,2.3-.25.23,0,.35.1.35.29Z"/>
      <path class="cls-4" d="M17.12,25.58c.2,0,.51.04.96.13.09.02.16.02.22.02.07,0,.2-.04.39-.11.09-.04.17-.05.23-.05.18,0,.36.12.54.35.15.18.27.38.36.6s.14.41.14.57-.05.29-.16.39-.25.16-.41.16c-.14,0-.26-.03-.37-.1s-.28-.21-.52-.44c-.25-.24-.46-.36-.62-.36-.11,0-.2.04-.28.12s-.12.17-.12.28c0,.19.18.37.55.54.66.3,1.17.62,1.52.97.3.3.45.66.45,1.09,0,.54-.24,1-.71,1.36-.41.32-.91.47-1.51.47-.15,0-.43-.03-.83-.08-.38-.04-.59-.06-.64-.06-.05,0-.11,0-.18.02-.11.02-.2.02-.25.02-.18,0-.33-.05-.43-.14-.16-.14-.31-.37-.45-.68s-.21-.58-.21-.8c0-.36.14-.54.42-.54.11,0,.21.04.3.11s.28.26.58.58c.16.17.29.29.4.35s.22.1.34.1c.13,0,.23-.03.31-.1s.12-.16.12-.27c0-.18-.15-.34-.45-.48-.63-.31-1.08-.63-1.36-.96s-.42-.71-.42-1.14c0-.46.14-.87.43-1.2.41-.48.96-.72,1.66-.72Z"/>
      <path class="cls-4" d="M23.41,27.12v1.98c0,.23.06.43.17.57s.26.22.44.22c.15,0,.35-.07.6-.21.06-.04.12-.05.18-.05.09,0,.18.06.26.17s.12.24.12.37c0,.24-.13.47-.4.7-.55.47-1.23.71-2.02.71-.62,0-1.13-.18-1.51-.53s-.57-.82-.57-1.4v-2.71c0-.09-.01-.15-.03-.17s-.08-.03-.17-.03h-.6c-.11,0-.19-.02-.22-.06s-.05-.12-.05-.26v-.26c0-.12.05-.2.13-.26l2.68-1.69c.07-.04.15-.05.25-.05h.47c.1,0,.16.02.2.07s.05.13.05.27v.79c0,.12.02.19.06.23s.12.05.24.05h1.08c.14,0,.24.03.28.08s.06.17.06.34v.35c0,.19-.03.32-.08.39s-.15.11-.3.11h-1.06c-.11,0-.18.02-.22.06s-.06.11-.06.22Z"/>
      <path class="cls-4" d="M28.44,25.57c.71,0,1.34.19,1.88.56.39.27.7.61.93,1.04.24.45.36.91.36,1.39,0,.85-.39,1.57-1.17,2.16-.74.57-1.59.85-2.55.85s-1.69-.27-2.27-.8c-.56-.52-.84-1.19-.84-2.02,0-.92.34-1.68,1.03-2.26.72-.62,1.59-.93,2.62-.93ZM27.97,26.93c-.17,0-.31.06-.41.19s-.16.3-.16.51c0,.23.04.55.13.96s.19.76.31,1.08c.12.32.32.48.59.48.35,0,.52-.22.52-.66,0-.33-.04-.7-.13-1.12s-.19-.76-.32-1.02c-.13-.27-.31-.4-.54-.41Z"/>
      <path class="cls-4" d="M34.28,25.62c.22,0,.33.16.33.47v.1c0,.06,0,.11,0,.15,0,.21.06.32.19.32.07,0,.17-.08.31-.25.21-.24.48-.43.8-.58s.65-.21.98-.21c.65,0,1.11.24,1.36.71.1.18.18.26.24.26.04,0,.14-.08.3-.23.51-.5,1.08-.74,1.73-.74.5,0,.92.14,1.24.42.34.29.5.72.5,1.3,0,.12,0,.34-.01.63,0,.1-.01.41-.01.92,0,.33,0,.56,0,.69,0,.08,0,.14,0,.18,0,.25.08.47.23.66.09.11.15.19.17.23s.03.09.03.15c0,.5-.59.75-1.76.75-.52,0-.94-.06-1.26-.19s-.48-.29-.48-.49c0-.08.01-.14.03-.18s.1-.15.23-.33c.12-.16.18-.69.18-1.6,0-.53-.04-.89-.11-1.1-.09-.25-.26-.37-.52-.37-.13,0-.24.04-.34.12s-.17.18-.2.3c-.04.14-.05.52-.06,1.12.01.66.03,1.05.06,1.2s.13.34.3.59c.04.06.06.13.06.22,0,.46-.61.7-1.82.7-.73,0-1.22-.05-1.48-.16-.2-.09-.3-.24-.3-.46,0-.1.01-.17.04-.21s.11-.13.26-.27c.09-.08.14-.16.17-.23s.04-.2.06-.4c.03-.43.04-.86.04-1.3,0-.77-.2-1.15-.59-1.15-.29,0-.47.16-.52.49-.05.31-.07.75-.07,1.32,0,.43,0,.71.03.84s.07.27.14.42c.09.17.14.3.14.41,0,.25-.18.43-.53.53-.39.11-.81.16-1.28.16-.6,0-1.04-.05-1.32-.14s-.42-.25-.42-.45c0-.08.02-.14.06-.2s.12-.14.25-.26c.18-.16.28-.38.3-.66.04-.48.06-.99.06-1.51,0-.37-.02-.63-.06-.78s-.12-.26-.24-.35c-.12-.09-.19-.16-.23-.21s-.05-.11-.05-.19c0-.26.21-.47.62-.62.99-.36,1.73-.54,2.22-.54Z"/>
      <path class="cls-4" d="M47.83,28.79h-2.75c-.12,0-.18.05-.18.16,0,.25.14.49.41.72s.57.34.89.34c.19,0,.4-.04.62-.11s.42-.16.57-.27c.13-.09.24-.14.32-.14.1,0,.2.06.3.19s.15.25.15.39c0,.28-.18.55-.53.81-.62.46-1.34.7-2.15.7s-1.51-.24-2.06-.71c-.27-.23-.49-.52-.67-.85-.23-.44-.35-.91-.35-1.39,0-.66.2-1.25.6-1.77.34-.45.78-.79,1.31-1.01.4-.17.83-.25,1.29-.25.74,0,1.37.21,1.89.63.26.21.47.46.63.75.18.33.28.65.28.96,0,.25-.05.46-.16.62s-.24.24-.41.24ZM45.23,27.7h.59c.25,0,.38-.12.38-.35,0-.21-.06-.38-.18-.52s-.28-.2-.47-.2c-.22,0-.39.09-.52.26-.12.16-.18.32-.18.49,0,.12.03.2.08.25s.16.07.3.07Z"/>
      <path class="cls-4" d="M50.91,25.62c.21,0,.33.03.38.09s.08.25.12.56c.02.17.08.26.18.26.08,0,.15-.06.22-.17.31-.49.72-.73,1.22-.73.36,0,.65.12.87.35.11.11.2.26.27.44s.11.35.11.51c0,.18-.04.37-.13.57s-.2.35-.33.48c-.25.24-.56.36-.92.36-.2,0-.37-.04-.5-.11s-.31-.21-.53-.43c-.08-.08-.16-.12-.23-.12-.11,0-.18.06-.21.18s-.05.38-.05.78c0,.59.02.99.06,1.21.03.12.07.2.11.24s.15.09.31.14c.35.11.53.29.53.55,0,.16-.06.3-.17.42s-.26.2-.45.24c-.38.08-.93.12-1.65.12s-1.22-.06-1.58-.18c-.32-.11-.48-.3-.48-.57,0-.2.12-.38.35-.54.11-.07.19-.14.23-.2s.07-.14.09-.25c.06-.36.09-1.01.09-1.97,0-.18-.02-.3-.06-.38s-.12-.14-.23-.18c-.28-.11-.42-.27-.42-.47,0-.19.1-.35.29-.48s.51-.27.96-.4c.6-.18,1.11-.27,1.54-.28Z"/>
      <path class="cls-4" d="M56.98,26.77v1.88c0,.83.01,1.32.04,1.45s.12.24.29.32c.14.06.24.12.29.18s.07.13.07.23c0,.13-.05.25-.14.35s-.21.18-.37.22c-.28.09-.76.13-1.42.13-.75,0-1.28-.06-1.59-.17-.14-.05-.26-.13-.35-.24s-.13-.22-.13-.34c0-.09.02-.17.07-.22s.16-.11.32-.18c.15-.07.25-.25.28-.54.06-.51.09-1.23.09-2.17s-.03-1.57-.08-1.84-.19-.48-.41-.61c-.16-.09-.28-.18-.34-.27s-.09-.19-.09-.31c0-.19.09-.36.28-.5s.48-.27.88-.4c.27-.08.62-.16,1.05-.23s.74-.11.94-.11c.31,0,.46.19.46.57,0,.12-.02.41-.06.86-.05.7-.08,1.34-.09,1.92Z"/>
      <path class="cls-4" d="M61.04,25.57c.71,0,1.34.19,1.88.56.39.27.7.61.93,1.04.24.45.36.91.36,1.39,0,.85-.39,1.57-1.17,2.16-.74.57-1.59.85-2.55.85s-1.69-.27-2.27-.8c-.56-.52-.84-1.19-.84-2.02,0-.92.34-1.68,1.03-2.26.72-.62,1.59-.93,2.62-.93ZM60.58,26.93c-.17,0-.31.06-.41.19s-.16.3-.16.51c0,.23.04.55.13.96s.19.76.31,1.08c.12.32.32.48.59.48.35,0,.52-.22.52-.66,0-.33-.04-.7-.13-1.12s-.19-.76-.32-1.02c-.13-.27-.31-.4-.54-.41Z"/>
      <path class="cls-4" d="M69.92,27.41l-1.52,2.95c-.23.46-.43.77-.6.95s-.34.27-.53.27-.33-.07-.45-.2c-.24-.27-.45-.57-.63-.9l-1.66-3.16c-.09-.17-.18-.3-.26-.37s-.2-.13-.35-.17c-.3-.09-.45-.25-.45-.48s.18-.41.55-.52.95-.16,1.74-.16c.66,0,1.15.05,1.47.14s.47.24.47.44c0,.14-.07.28-.22.4-.09.09-.15.15-.18.19s-.04.1-.04.16c0,.13.09.35.26.66.17.3.33.45.48.45.1,0,.18-.04.24-.11s.18-.27.34-.57c.12-.23.18-.4.18-.52,0-.09-.06-.21-.19-.33-.13-.14-.2-.27-.2-.39,0-.19.12-.32.37-.4s.66-.12,1.22-.12c.8,0,1.2.17,1.2.52,0,.2-.14.34-.43.43-.22.07-.37.15-.45.23s-.2.29-.37.62Z"/>
      <path class="cls-4" d="M75.75,28.79h-2.75c-.12,0-.18.05-.18.16,0,.25.14.49.41.72s.57.34.89.34c.19,0,.4-.04.62-.11s.42-.16.57-.27c.13-.09.24-.14.32-.14.1,0,.2.06.3.19s.15.25.15.39c0,.28-.18.55-.53.81-.62.46-1.34.7-2.15.7s-1.51-.24-2.06-.71c-.27-.23-.49-.52-.67-.85-.23-.44-.35-.91-.35-1.39,0-.66.2-1.25.6-1.77.34-.45.78-.79,1.31-1.01.4-.17.83-.25,1.29-.25.74,0,1.37.21,1.89.63.26.21.47.46.63.75.18.33.28.65.28.96,0,.25-.05.46-.16.62s-.24.24-.41.24ZM73.15,27.7h.59c.25,0,.38-.12.38-.35,0-.21-.06-.38-.18-.52s-.28-.2-.47-.2c-.22,0-.39.09-.52.26-.12.16-.18.32-.18.49,0,.12.03.2.08.25s.16.07.3.07Z"/>
    </g>
  </g>
</svg>