<?xml version="1.0" encoding="UTF-8"?>
<svg id="Layer_2" data-name="Layer 2" xmlns="http://www.w3.org/2000/svg" viewBox="0 0 53.18 14.12">
  <defs>
    <style>
      .cls-1 {
        fill: #fff;
      }

      .cls-2 {
        fill: #ed1c24;
      }
    </style>
  </defs>
  <g id="Layer_1-2" data-name="Layer 1">
    <g>
      <rect class="cls-2" x="9.18" y="5.33" width="36.04" height="2.71"/>
      <g>
        <g>
          <path class="cls-2" d="M5.36,2.29l-.08,2.46c0,.29.08.44.27.44.09,0,.19-.06.28-.19.38-.55.88-.83,1.52-.83s1.12.19,1.48.57c.16.17.28.37.35.6s.11.56.11.99l.05,2.12c0,.18.03.32.07.4s.15.19.31.32c.11.09.17.2.17.32,0,.42-.64.63-1.91.63-1.13,0-1.7-.2-1.7-.59,0-.07,0-.12.03-.15s.09-.13.21-.28c.16-.21.25-.75.25-1.61,0-.52-.05-.9-.15-1.14-.13-.32-.36-.49-.69-.49-.24,0-.41.09-.53.26-.08.12-.12.36-.12.7v1.13c.03.5.05.78.07.85s.11.19.27.37c.07.08.11.18.11.29,0,.44-.57.66-1.72.66-1.34,0-2.02-.23-2.02-.69,0-.11.02-.19.06-.24s.15-.14.32-.26c.15-.11.25-.39.31-.85s.08-1.23.08-2.3c0-.84-.02-1.42-.07-1.75-.02-.12-.04-.21-.08-.27s-.12-.11-.23-.17c-.24-.12-.36-.27-.36-.43,0-.2.09-.35.28-.47s.54-.25,1.05-.39c.7-.2,1.26-.29,1.68-.29.23,0,.34.1.33.29Z"/>
          <path class="cls-2" d="M7.99,12.12c-.84,0-1.49-.11-1.99-.3-.5.18-1.15.3-1.98.3-3.49,0-4.02-1.68-4.02-2.69,0-.69.26-1.17.47-1.45.07-.09.15-.19.25-.28.03-.3.06-.87.06-1.93,0-.4,0-.69-.01-.91C.11,4.24.02,3.5.02,3.16.02,2.29.45,1.51,1.2,1.02c.38-.25.88-.45,1.63-.65.87-.24,1.6-.36,2.2-.36.67,0,1.27.25,1.71.7.38.39.6.91.62,1.47,1.46,0,2.39.64,2.91,1.18.39.4.67.88.83,1.42.12.41.19.9.2,1.52l.04,1.66c.37.44.57.98.57,1.54,0,.98-.51,2.63-3.91,2.63ZM4.13,10.49s.01.01.02.02c0,0-.01-.01-.02-.02ZM.72,4.32s0,0,0,0c0,0,0,0,0,0ZM3.3,1.82s0,0,0,0c0,0,0,0,0,0Z"/>
        </g>
        <g>
          <path class="cls-2" d="M13.28,4.16c.71,0,1.34.19,1.88.56.39.27.7.61.93,1.04.24.45.36.91.36,1.39,0,.85-.39,1.57-1.17,2.16-.74.57-1.59.85-2.55.85s-1.69-.27-2.27-.8c-.56-.52-.84-1.19-.84-2.02,0-.92.34-1.68,1.03-2.26.72-.62,1.59-.93,2.62-.93ZM12.81,5.52c-.17,0-.31.06-.41.19s-.16.3-.16.51c0,.23.04.55.13.96s.19.76.31,1.08c.12.32.32.48.59.48.35,0,.52-.22.52-.66,0-.33-.04-.7-.13-1.12s-.19-.76-.32-1.02c-.13-.27-.31-.4-.54-.41Z"/>
          <path class="cls-2" d="M12.74,12.16c-1.45,0-2.67-.45-3.62-1.32-.97-.89-1.49-2.1-1.49-3.49,0-1.51.6-2.82,1.73-3.78,1.08-.93,2.4-1.4,3.92-1.4,1.12,0,2.14.31,3.01.91.64.44,1.17,1.02,1.55,1.72.41.75.61,1.54.61,2.36,0,1.03-.34,2.52-1.95,3.75-1.1.84-2.36,1.26-3.76,1.26ZM12.81,6.81v.71c.43,0,.86-.21,1.14-.55.01-.02.03-.03.04-.05-.34-.19-.8-.24-1.18-.11ZM12.09,7.33c.19.1.41.17.65.18l.02-.69c-.28.11-.51.3-.67.51Z"/>
        </g>
        <g>
          <path class="cls-2" d="M19.58,5.7v1.98c0,.23.06.43.17.57s.26.22.44.22c.15,0,.35-.07.6-.21.06-.04.12-.05.18-.05.09,0,.18.06.26.17s.12.24.12.37c0,.24-.13.47-.4.7-.55.47-1.23.71-2.02.71-.62,0-1.13-.18-1.51-.53s-.57-.82-.57-1.4v-2.71c0-.09-.01-.15-.03-.17s-.08-.03-.17-.03h-.6c-.11,0-.19-.02-.22-.06s-.05-.12-.05-.26v-.26c0-.12.05-.2.13-.26l2.68-1.69c.07-.04.15-.05.25-.05h.47c.1,0,.16.02.2.07s.05.13.05.27v.79c0,.12.02.19.06.23s.12.05.24.05h1.08c.14,0,.24.03.28.08s.06.17.06.34v.35c0,.19-.03.32-.08.39s-.15.11-.3.11h-1.06c-.11,0-.18.02-.22.06s-.06.11-.06.22Z"/>
          <path class="cls-2" d="M18.94,12.16c-1.43,0-2.35-.58-2.87-1.07-.79-.73-1.2-1.72-1.2-2.86v-1.21c-.26-.15-.44-.33-.55-.46-.52-.61-.52-1.32-.52-1.55v-.26c.03-.85.41-1.53,1.06-1.95l2.82-1.77c.36-.19.75-.29,1.18-.29h.47c.73,0,1.39.32,1.8.88.13.17.23.36.3.57.72.13,1.14.52,1.35.77.51.63.51,1.36.51,1.6v.35c0,.64-.16,1.16-.49,1.6-.09.12-.19.22-.29.32.13.12.25.26.36.41.31.45.47.97.47,1.5,0,.48-.14,1.42-1.11,2.23-.9.77-2.04,1.18-3.3,1.18ZM21.83,9.98s-.07.04-.1.06c.04-.02.07-.04.1-.06ZM19.66,7.93s0,0,0,0c0,0,0,0,0,0Z"/>
        </g>
        <g>
          <path class="cls-2" d="M23.93,4.2c.24,0,.39.02.45.06s.09.14.09.31c0,.14.05.22.14.22.04,0,.17-.07.39-.22.17-.11.38-.21.64-.28s.5-.11.71-.11c.5,0,.94.17,1.33.52.3.26.53.59.69.99.17.42.26.86.26,1.32,0,.98-.33,1.79-1,2.43-.51.5-1.09.74-1.75.74-.33,0-.67-.08-1.03-.23-.07-.03-.13-.05-.17-.05-.12,0-.18.12-.18.35,0,.31.1.53.31.67.19.13.31.22.34.26s.06.12.06.23c0,.23-.13.42-.39.54s-.63.19-1.11.19c-.85,0-1.59-.17-2.23-.51-.32-.17-.49-.38-.49-.64,0-.12.02-.21.07-.27s.14-.12.28-.19c.2-.09.33-.26.37-.51s.08-.95.1-2.12c-.03-.96-.06-1.5-.11-1.62-.02-.04-.04-.06-.07-.08s-.13-.03-.29-.06c-.12-.02-.23-.08-.3-.17s-.12-.2-.12-.33c0-.16.05-.29.16-.41s.29-.24.53-.35c.96-.43,1.72-.65,2.28-.66ZM24.51,6.41l-.09,1.61c0,.07,0,.13,0,.19,0,.12.05.22.16.29s.25.11.42.11c.54,0,.81-.44.81-1.33,0-.57-.11-.98-.34-1.21-.14-.14-.31-.22-.5-.22-.28,0-.43.18-.45.55Z"/>
          <path class="cls-2" d="M23.72,14.12c-1.18,0-2.24-.25-3.17-.75-.98-.52-1.54-1.4-1.54-2.4,0-.73.28-1.23.52-1.52.08-.1.17-.2.28-.29.01-.27.03-.69.04-1.32,0-.11,0-.22-.01-.31-.1-.09-.19-.18-.28-.28-.39-.46-.59-1.02-.59-1.63,0-.65.25-1.28.69-1.77.29-.32.68-.58,1.17-.81,1.23-.56,2.24-.83,3.09-.85h.03c.34,0,.73.03,1.11.17.01,0,.02,0,.03,0,1.52-.45,2.86-.12,3.92.82.53.47.94,1.05,1.22,1.73.27.66.41,1.36.41,2.08,0,1.52-.56,2.86-1.61,3.88-.55.53-1.18.91-1.86,1.11-.18.75-.69,1.38-1.45,1.75-.54.26-1.19.39-1.98.39ZM24.04,11.75s0,0,0,0c0,0,0,0,0,0ZM22.43,9.84h0,0ZM20.51,8.71s-.02,0-.03.01c0,0,.02,0,.03-.01ZM23.88,7.27c.04.06.09.13.15.2.24.25.59.39.93.39.5,0,.92-.24,1.19-.55-.11-.17-.26-.32-.42-.44-.16-.11-.31-.17-.43-.21-.25.09-.57.14-.88.11-.24.13-.43.32-.53.5ZM22.46,4.57h0s0,0,0,0ZM21.74,4.16s0,0,0,0c0,0,0,0,0,0Z"/>
        </g>
        <g>
          <path class="cls-2" d="M31.7,4.57v3.4c0,.27.02.47.07.59s.15.24.3.35c.12.09.2.16.24.22s.06.14.06.23c0,.5-.64.76-1.92.76-.69,0-1.23-.05-1.63-.16-.14-.04-.25-.11-.33-.21s-.13-.21-.13-.33c0-.11.02-.19.06-.25s.15-.15.33-.28c.12-.09.21-.24.26-.44s.08-.51.08-.91c0-.13,0-.37-.03-.72s-.03-.56-.04-.62c-.02-.16-.13-.28-.33-.37-.24-.11-.36-.26-.36-.47,0-.25.16-.43.47-.55.44-.17.91-.31,1.41-.43s.89-.18,1.16-.18c.21,0,.32.12.32.36ZM30.54,2.01c.34,0,.61.06.81.19s.3.3.3.51c0,.3-.15.54-.45.71-.48.28-1.05.42-1.73.42-.29,0-.51-.05-.68-.16-.23-.14-.34-.34-.34-.59,0-.34.24-.6.72-.79.49-.2.95-.29,1.37-.29Z"/>
          <path class="cls-2" d="M30.46,12.12c-.87,0-1.58-.08-2.16-.23-.54-.15-.99-.44-1.32-.83-.4-.46-.61-1.03-.61-1.64,0-.67.25-1.15.45-1.43.08-.11.17-.21.27-.31,0-.04,0-.08,0-.13,0-.08,0-.22-.01-.42-.47-.46-.74-1.07-.74-1.76,0-.44.11-.86.32-1.22-.14-.32-.21-.68-.21-1.05,0-.56.19-1.94,1.98-2.65,1.49-.6,2.98-.58,4,.07.78.5,1.22,1.3,1.22,2.2,0,.31-.05.6-.14.88.13.29.19.63.19.98v3.11c.1.11.19.21.27.33.26.39.41.86.41,1.35,0,.83-.38,2.76-3.92,2.76ZM29.53,6.68h0,0ZM29.88,2c-.09.13-.16.29-.2.46.03,0,.06-.01.09-.02.16-.04.31-.07.45-.1-.09-.14-.21-.25-.34-.34Z"/>
        </g>
        <g>
          <path class="cls-2" d="M35.46,4.17c.7,0,1.31.17,1.84.52.5.33.76.74.76,1.24,0,.34-.12.62-.35.83-.22.2-.48.3-.79.3-.32,0-.57-.12-.73-.35-.05-.07-.12-.26-.22-.57-.11-.33-.31-.49-.6-.49-.21,0-.4.09-.54.28s-.22.42-.22.69c0,.47.17.88.5,1.25.27.29.62.44,1.03.44.2,0,.36-.02.49-.05s.31-.1.52-.2c.05-.03.12-.04.18-.04.13,0,.25.06.35.19s.15.27.15.44-.07.36-.22.55-.33.36-.57.51c-.51.31-1.11.47-1.8.47-.8,0-1.49-.23-2.06-.7-.73-.59-1.09-1.35-1.09-2.27s.34-1.61,1.01-2.19c.64-.55,1.43-.83,2.35-.83Z"/>
          <path class="cls-2" d="M35.25,12.16c-1.28,0-2.4-.39-3.33-1.16-1.18-.97-1.81-2.29-1.81-3.81s.59-2.75,1.71-3.71c1.01-.87,2.24-1.31,3.65-1.31,1.09,0,2.08.29,2.93.85,1.07.71,1.66,1.74,1.66,2.91,0,.59-.16,1.15-.45,1.63.14.33.22.7.22,1.08,0,.42-.11,1.07-.62,1.75-.29.39-.67.74-1.12,1.01-.83.51-1.79.77-2.85.77ZM38.04,9.84s-.05.02-.07.03c.03-.01.05-.02.07-.03Z"/>
        </g>
        <g>
          <path class="cls-2" d="M41.16,2.29l-.05,1.83c0,.18,0,.45,0,.81,0,.39,0,.63.02.7.03.16.11.24.25.24.12,0,.3-.08.54-.23s.36-.26.36-.34c0-.04-.04-.12-.13-.23-.06-.08-.09-.16-.09-.23,0-.42.52-.63,1.56-.63.54,0,.96.05,1.28.16.12.04.23.12.31.22s.12.22.12.34c0,.18-.08.3-.25.37-.04.02-.15.04-.34.08-.17.03-.39.14-.67.32s-.41.31-.41.4c0,.05.17.31.5.77s.64.86.92,1.2c.18.22.33.38.43.47s.25.19.43.29c.28.15.42.33.42.52,0,.21-.09.37-.27.49s-.42.18-.73.18h-1.9c-.24,0-.42-.09-.56-.26l-.97-1.25c-.26-.33-.42-.52-.47-.59s-.1-.09-.14-.09c-.05,0-.08.04-.09.11s-.02.2-.02.4c0,.18.02.3.06.38s.13.18.27.29c.1.08.15.2.15.36,0,.27-.14.47-.43.59s-.77.18-1.43.18c-.78,0-1.29-.03-1.52-.1-.13-.04-.25-.12-.34-.24s-.14-.25-.14-.38c0-.15.08-.28.25-.39.14-.09.23-.16.27-.21s.07-.12.09-.22c.09-.55.13-1.39.13-2.53v-1.28c0-.44-.02-.72-.07-.84s-.16-.19-.33-.22c-.32-.04-.48-.18-.48-.4,0-.15.07-.28.21-.4s.37-.24.69-.35c1.02-.38,1.78-.57,2.27-.57.22,0,.33.1.32.29Z"/>
          <path class="cls-2" d="M39.8,12.13c-1.03,0-1.63-.05-2.07-.18-.55-.16-1.02-.48-1.37-.92-.37-.47-.57-1.03-.57-1.61,0-.64.25-1.23.7-1.69.03-.37.05-.89.04-1.65v-.9c-.6-.48-.88-1.18-.88-1.84,0-.74.33-1.43.92-1.93.33-.28.74-.5,1.3-.71C39.14.23,40.09,0,40.83,0c.67,0,1.27.25,1.7.7.39.41.61.94.62,1.52.14,0,.29-.01.44-.01.77,0,1.41.09,1.94.28.48.17.91.47,1.23.88.36.46.54,1,.54,1.57,0,.7-.29,1.33-.78,1.77.02.02.04.05.06.07.1.12.17.2.23.26-.01-.02.03,0,.07.03,1.31.71,1.45,1.83,1.45,2.27,0,.88-.42,1.67-1.17,2.16-.51.34-1.12.51-1.83.51h-1.9c-.46,0-.88-.11-1.25-.3-.06.03-.12.06-.19.09-.55.23-1.25.34-2.2.34ZM44.96,10.57s0,0,0,0c0,0,0,0,0,0ZM45.08,7.35s0,0,0,0c0,0,0,0,0,0ZM37.87,5.71h0,0ZM43.73,3.86s0,0,0,0c0,0,0,0,0,0Z"/>
        </g>
        <g>
          <path class="cls-2" d="M48.31,4.17c.2,0,.51.04.96.13.09.02.16.02.22.02.07,0,.2-.04.39-.11.09-.04.17-.05.23-.05.18,0,.36.12.54.35.15.18.27.38.36.6s.14.41.14.57-.05.29-.16.39-.25.16-.41.16c-.14,0-.26-.03-.37-.1s-.28-.21-.52-.44c-.25-.24-.46-.36-.62-.36-.11,0-.2.04-.28.12s-.12.17-.12.28c0,.19.18.37.55.54.66.3,1.17.62,1.52.97.3.3.45.66.45,1.09,0,.54-.24,1-.71,1.36-.41.32-.91.47-1.51.47-.15,0-.43-.03-.83-.08-.38-.04-.59-.06-.64-.06-.05,0-.11,0-.18.02-.11.02-.2.02-.25.02-.18,0-.33-.05-.43-.14-.16-.14-.31-.37-.45-.68s-.21-.58-.21-.8c0-.36.14-.54.42-.54.11,0,.21.04.3.11s.28.26.58.58c.16.17.29.29.4.35s.22.1.34.1c.13,0,.23-.03.31-.1s.12-.16.12-.27c0-.18-.15-.34-.45-.48-.63-.31-1.08-.63-1.36-.96s-.42-.71-.42-1.14c0-.46.14-.87.43-1.2.41-.48.96-.72,1.66-.72Z"/>
          <path class="cls-2" d="M48.96,12.16c-.25,0-.58-.03-1.08-.09-.16-.02-.28-.03-.37-.04-.22.03-.35.03-.44.03-.86,0-1.43-.35-1.76-.65-.39-.35-.69-.79-.95-1.37-.25-.57-.38-1.1-.38-1.61s.13-1,.36-1.39c-.08-.31-.12-.63-.12-.96,0-.94.31-1.8.9-2.5.79-.93,1.89-1.43,3.19-1.43.28,0,.61.04,1.04.11.26-.08.51-.12.75-.12.46,0,1.35.14,2.11,1.1.25.31.47.67.64,1.06.2.47.3.92.3,1.36s-.1.82-.28,1.17c.21.45.31.95.31,1.48,0,1.16-.53,2.21-1.5,2.95-.76.58-1.68.88-2.72.88ZM47.67,12.01s-.04,0-.06,0c.02,0,.04,0,.06,0ZM50.61,6.08s-.02,0-.03.01c.01,0,.02,0,.03-.01Z"/>
        </g>
      </g>
      <g>
        <path class="cls-1" d="M5.36,2.29l-.08,2.46c0,.29.08.44.27.44.09,0,.19-.06.28-.19.38-.55.88-.83,1.52-.83s1.12.19,1.48.57c.16.17.28.37.35.6s.11.56.11.99l.05,2.12c0,.18.03.32.07.4s.15.19.31.32c.11.09.17.2.17.32,0,.42-.64.63-1.91.63-1.13,0-1.7-.2-1.7-.59,0-.07,0-.12.03-.15s.09-.13.21-.28c.16-.21.25-.75.25-1.61,0-.52-.05-.9-.15-1.14-.13-.32-.36-.49-.69-.49-.24,0-.41.09-.53.26-.08.12-.12.36-.12.7v1.13c.03.5.05.78.07.85s.11.19.27.37c.07.08.11.18.11.29,0,.44-.57.66-1.72.66-1.34,0-2.02-.23-2.02-.69,0-.11.02-.19.06-.24s.15-.14.32-.26c.15-.11.25-.39.31-.85s.08-1.23.08-2.3c0-.84-.02-1.42-.07-1.75-.02-.12-.04-.21-.08-.27s-.12-.11-.23-.17c-.24-.12-.36-.27-.36-.43,0-.2.09-.35.28-.47s.54-.25,1.05-.39c.7-.2,1.26-.29,1.68-.29.23,0,.34.1.33.29Z"/>
        <path class="cls-1" d="M13.28,4.16c.71,0,1.34.19,1.88.56.39.27.7.61.93,1.04.24.45.36.91.36,1.39,0,.85-.39,1.57-1.17,2.16-.74.57-1.59.85-2.55.85s-1.69-.27-2.27-.8c-.56-.52-.84-1.19-.84-2.02,0-.92.34-1.68,1.03-2.26.72-.62,1.59-.93,2.62-.93ZM12.81,5.52c-.17,0-.31.06-.41.19s-.16.3-.16.51c0,.23.04.55.13.96s.19.76.31,1.08c.12.32.32.48.59.48.35,0,.52-.22.52-.66,0-.33-.04-.7-.13-1.12s-.19-.76-.32-1.02c-.13-.27-.31-.4-.54-.41Z"/>
        <path class="cls-1" d="M19.58,5.7v1.98c0,.23.06.43.17.57s.26.22.44.22c.15,0,.35-.07.6-.21.06-.04.12-.05.18-.05.09,0,.18.06.26.17s.12.24.12.37c0,.24-.13.47-.4.7-.55.47-1.23.71-2.02.71-.62,0-1.13-.18-1.51-.53s-.57-.82-.57-1.4v-2.71c0-.09-.01-.15-.03-.17s-.08-.03-.17-.03h-.6c-.11,0-.19-.02-.22-.06s-.05-.12-.05-.26v-.26c0-.12.05-.2.13-.26l2.68-1.69c.07-.04.15-.05.25-.05h.47c.1,0,.16.02.2.07s.05.13.05.27v.79c0,.12.02.19.06.23s.12.05.24.05h1.08c.14,0,.24.03.28.08s.06.17.06.34v.35c0,.19-.03.32-.08.39s-.15.11-.3.11h-1.06c-.11,0-.18.02-.22.06s-.06.11-.06.22Z"/>
        <path class="cls-1" d="M23.93,4.2c.24,0,.39.02.45.06s.09.14.09.31c0,.14.05.22.14.22.04,0,.17-.07.39-.22.17-.11.38-.21.64-.28s.5-.11.71-.11c.5,0,.94.17,1.33.52.3.26.53.59.69.99.17.42.26.86.26,1.32,0,.98-.33,1.79-1,2.43-.51.5-1.09.74-1.75.74-.33,0-.67-.08-1.03-.23-.07-.03-.13-.05-.17-.05-.12,0-.18.12-.18.35,0,.31.1.53.31.67.19.13.31.22.34.26s.06.12.06.23c0,.23-.13.42-.39.54s-.63.19-1.11.19c-.85,0-1.59-.17-2.23-.51-.32-.17-.49-.38-.49-.64,0-.12.02-.21.07-.27s.14-.12.28-.19c.2-.09.33-.26.37-.51s.08-.95.1-2.12c-.03-.96-.06-1.5-.11-1.62-.02-.04-.04-.06-.07-.08s-.13-.03-.29-.06c-.12-.02-.23-.08-.3-.17s-.12-.2-.12-.33c0-.16.05-.29.16-.41s.29-.24.53-.35c.96-.43,1.72-.65,2.28-.66ZM24.51,6.41l-.09,1.61c0,.07,0,.13,0,.19,0,.12.05.22.16.29s.25.11.42.11c.54,0,.81-.44.81-1.33,0-.57-.11-.98-.34-1.21-.14-.14-.31-.22-.5-.22-.28,0-.43.18-.45.55Z"/>
        <path class="cls-1" d="M31.7,4.57v3.4c0,.27.02.47.07.59s.15.24.3.35c.12.09.2.16.24.22s.06.14.06.23c0,.5-.64.76-1.92.76-.69,0-1.23-.05-1.63-.16-.14-.04-.25-.11-.33-.21s-.13-.21-.13-.33c0-.11.02-.19.06-.25s.15-.15.33-.28c.12-.09.21-.24.26-.44s.08-.51.08-.91c0-.13,0-.37-.03-.72s-.03-.56-.04-.62c-.02-.16-.13-.28-.33-.37-.24-.11-.36-.26-.36-.47,0-.25.16-.43.47-.55.44-.17.91-.31,1.41-.43s.89-.18,1.16-.18c.21,0,.32.12.32.36ZM30.54,2.01c.34,0,.61.06.81.19s.3.3.3.51c0,.3-.15.54-.45.71-.48.28-1.05.42-1.73.42-.29,0-.51-.05-.68-.16-.23-.14-.34-.34-.34-.59,0-.34.24-.6.72-.79.49-.2.95-.29,1.37-.29Z"/>
        <path class="cls-1" d="M35.46,4.17c.7,0,1.31.17,1.84.52.5.33.76.74.76,1.24,0,.34-.12.62-.35.83-.22.2-.48.3-.79.3-.32,0-.57-.12-.73-.35-.05-.07-.12-.26-.22-.57-.11-.33-.31-.49-.6-.49-.21,0-.4.09-.54.28s-.22.42-.22.69c0,.47.17.88.5,1.25.27.29.62.44,1.03.44.2,0,.36-.02.49-.05s.31-.1.52-.2c.05-.03.12-.04.18-.04.13,0,.25.06.35.19s.15.27.15.44-.07.36-.22.55-.33.36-.57.51c-.51.31-1.11.47-1.8.47-.8,0-1.49-.23-2.06-.7-.73-.59-1.09-1.35-1.09-2.27s.34-1.61,1.01-2.19c.64-.55,1.43-.83,2.35-.83Z"/>
        <path class="cls-1" d="M41.16,2.29l-.05,1.83c0,.18,0,.45,0,.81,0,.39,0,.63.02.7.03.16.11.24.25.24.12,0,.3-.08.54-.23s.36-.26.36-.34c0-.04-.04-.12-.13-.23-.06-.08-.09-.16-.09-.23,0-.42.52-.63,1.56-.63.54,0,.96.05,1.28.16.12.04.23.12.31.22s.12.22.12.34c0,.18-.08.3-.25.37-.04.02-.15.04-.34.08-.17.03-.39.14-.67.32s-.41.31-.41.4c0,.05.17.31.5.77s.64.86.92,1.2c.18.22.33.38.43.47s.25.19.43.29c.28.15.42.33.42.52,0,.21-.09.37-.27.49s-.42.18-.73.18h-1.9c-.24,0-.42-.09-.56-.26l-.97-1.25c-.26-.33-.42-.52-.47-.59s-.1-.09-.14-.09c-.05,0-.08.04-.09.11s-.02.2-.02.4c0,.18.02.3.06.38s.13.18.27.29c.1.08.15.2.15.36,0,.27-.14.47-.43.59s-.77.18-1.43.18c-.78,0-1.29-.03-1.52-.1-.13-.04-.25-.12-.34-.24s-.14-.25-.14-.38c0-.15.08-.28.25-.39.14-.09.23-.16.27-.21s.07-.12.09-.22c.09-.55.13-1.39.13-2.53v-1.28c0-.44-.02-.72-.07-.84s-.16-.19-.33-.22c-.32-.04-.48-.18-.48-.4,0-.15.07-.28.21-.4s.37-.24.69-.35c1.02-.38,1.78-.57,2.27-.57.22,0,.33.1.32.29Z"/>
        <path class="cls-1" d="M48.31,4.17c.2,0,.51.04.96.13.09.02.16.02.22.02.07,0,.2-.04.39-.11.09-.04.17-.05.23-.05.18,0,.36.12.54.35.15.18.27.38.36.6s.14.41.14.57-.05.29-.16.39-.25.16-.41.16c-.14,0-.26-.03-.37-.1s-.28-.21-.52-.44c-.25-.24-.46-.36-.62-.36-.11,0-.2.04-.28.12s-.12.17-.12.28c0,.19.18.37.55.54.66.3,1.17.62,1.52.97.3.3.45.66.45,1.09,0,.54-.24,1-.71,1.36-.41.32-.91.47-1.51.47-.15,0-.43-.03-.83-.08-.38-.04-.59-.06-.64-.06-.05,0-.11,0-.18.02-.11.02-.2.02-.25.02-.18,0-.33-.05-.43-.14-.16-.14-.31-.37-.45-.68s-.21-.58-.21-.8c0-.36.14-.54.42-.54.11,0,.21.04.3.11s.28.26.58.58c.16.17.29.29.4.35s.22.1.34.1c.13,0,.23-.03.31-.1s.12-.16.12-.27c0-.18-.15-.34-.45-.48-.63-.31-1.08-.63-1.36-.96s-.42-.71-.42-1.14c0-.46.14-.87.43-1.2.41-.48.96-.72,1.66-.72Z"/>
      </g>
    </g>
  </g>
</svg>