<?xml version="1.0" encoding="UTF-8"?>
<svg id="Layer_2" data-name="Layer 2" xmlns="http://www.w3.org/2000/svg" viewBox="0 0 70.69 11.16">
  <defs>
    <style>
      .cls-1 {
        fill: #fff;
      }

      .cls-2 {
        fill: #ed1c24;
      }
    </style>
  </defs>
  <g id="Layer_1-2" data-name="Layer 1">
    <g>
      <g>
        <path class="cls-2" d="M5.15,3.66c.71,0,1.34.19,1.88.56.39.27.7.61.93,1.04.24.45.36.91.36,1.39,0,.85-.39,1.57-1.17,2.16-.74.57-1.59.85-2.55.85s-1.69-.27-2.27-.8c-.56-.52-.84-1.19-.84-2.02,0-.92.34-1.68,1.03-2.26.72-.62,1.59-.93,2.62-.93ZM4.68,5.02c-.17,0-.31.06-.41.19s-.16.3-.16.51c0,.23.04.55.13.96s.19.76.31,1.08c.12.32.32.48.59.48.35,0,.52-.22.52-.66,0-.33-.04-.7-.13-1.12s-.19-.76-.32-1.02c-.13-.27-.31-.4-.54-.41Z"/>
        <path class="cls-2" d="M4.61,11.16c-1.32,0-2.42-.4-3.28-1.19-.87-.8-1.33-1.88-1.33-3.12,0-1.36.54-2.53,1.56-3.4.99-.85,2.2-1.28,3.59-1.28,1.02,0,1.94.28,2.73.82.58.4,1.05.92,1.4,1.55.37.67.55,1.38.55,2.12,0,.92-.3,2.25-1.76,3.35-1.01.77-2.17,1.16-3.46,1.16ZM5.96,7.2s0,0,0,0c0,0,0,0,0,0Z"/>
      </g>
      <g>
        <path class="cls-2" d="M11.36,4v3.18c0,.68.22,1.02.67,1.02.11,0,.22-.03.33-.1s.19-.14.23-.24c.09-.19.13-.61.13-1.25s-.02-1.08-.06-1.31c-.02-.1-.04-.17-.08-.21s-.11-.1-.22-.16c-.22-.12-.33-.27-.33-.45,0-.24.19-.41.57-.5.73-.18,1.44-.27,2.15-.27.39,0,.59.21.59.63,0,.04,0,.13,0,.26,0,.19-.01.42-.02.69v2.58c0,.13.11.25.34.36.19.09.29.23.29.41,0,.35-.42.62-1.25.81-.49.11-.96.17-1.42.17-.19,0-.32-.02-.38-.06s-.11-.13-.12-.25c-.02-.24-.09-.36-.22-.36-.05,0-.09.01-.13.03s-.16.1-.36.24c-.39.27-.82.4-1.27.4-.75,0-1.28-.22-1.59-.65-.26-.36-.39-.97-.39-1.83,0-.32,0-.59,0-.82v-.27c0-.34-.03-.58-.09-.74s-.17-.28-.33-.37c-.15-.08-.25-.14-.29-.19s-.06-.11-.06-.19c0-.3.22-.49.67-.59.77-.17,1.53-.25,2.3-.25.23,0,.35.1.35.29Z"/>
        <path class="cls-2" d="M13.28,11.13c-.29,0-.72-.03-1.13-.26-.43.17-.88.26-1.35.26-1.57,0-2.39-.7-2.81-1.28-.45-.62-.67-1.51-.67-2.7,0-.33,0-.61,0-.85v-.24h0c-.13-.1-.24-.2-.34-.31-.28-.32-.43-.73-.43-1.18,0-.8.49-1.76,1.86-2.06.86-.19,1.75-.29,2.62-.29.42,0,.81.13,1.11.34.04-.01.07-.02.11-.03.84-.21,1.68-.31,2.51-.31,1.23,0,2.09.88,2.09,2.13v.31c-.01.2-.02.41-.02.66v1.92c.4.37.63.87.63,1.42,0,.79-.42,1.82-2.41,2.28-.59.14-1.19.21-1.75.21ZM13.05,3.6h0s0,0,0,0Z"/>
      </g>
      <g>
        <path class="cls-2" d="M18.42,3.7c.21,0,.33.03.38.09s.08.25.12.56c.02.17.08.26.18.26.08,0,.15-.06.22-.17.31-.49.72-.73,1.22-.73.36,0,.65.12.87.35.11.11.2.26.27.44s.11.35.11.51c0,.18-.04.37-.13.57s-.2.35-.33.48c-.25.24-.56.36-.92.36-.2,0-.37-.04-.5-.11s-.31-.21-.53-.43c-.08-.08-.16-.12-.23-.12-.11,0-.18.06-.21.18s-.05.38-.05.78c0,.59.02.99.06,1.21.03.12.07.2.11.24s.15.09.31.14c.35.11.53.29.53.55,0,.16-.06.3-.17.42s-.26.2-.45.24c-.38.08-.93.12-1.65.12s-1.22-.06-1.58-.18c-.32-.11-.48-.3-.48-.57,0-.2.12-.38.35-.54.11-.07.19-.14.23-.2s.07-.14.09-.25c.06-.36.09-1.01.09-1.97,0-.18-.02-.3-.06-.38s-.12-.14-.23-.18c-.28-.11-.42-.27-.42-.47,0-.19.1-.35.29-.48s.51-.27.96-.4c.6-.18,1.11-.27,1.54-.28Z"/>
        <path class="cls-2" d="M17.63,11.12c-.86,0-1.54-.08-2.05-.26-.93-.32-1.5-1.08-1.5-1.99,0-.36.1-1.01.73-1.57.02-.2.03-.5.04-.95-.45-.37-.71-.9-.71-1.49,0-.67.34-1.3.92-1.71.33-.23.78-.43,1.4-.61.74-.22,1.38-.33,1.95-.34h.01c.4,0,.74.07,1.03.22.34-.14.71-.22,1.1-.22.76,0,1.43.27,1.94.79.26.26.45.58.59.94.14.35.21.71.21,1.06,0,.39-.09.79-.26,1.17-.17.38-.4.71-.69.98-.34.33-.76.55-1.23.67.21.33.29.7.29,1.03,0,.54-.21,1.06-.58,1.45-.32.34-.75.57-1.23.67-.48.1-1.12.15-1.96.15ZM14.77,7.64s0,.01,0,.02c0,0,0-.01,0-.02ZM18.33,6.94h0s0,0,0,0ZM18.42,3.7v.71s0,0,0,0v-.7ZM16.6,3.94s0,0,0,0c0,0,0,0,0,0ZM18.06,3.63v.02s0-.02,0-.02Z"/>
      </g>
      <g>
        <path class="cls-2" d="M27.24,4.86v1.88c0,.83.01,1.32.04,1.45s.12.24.29.32c.14.06.24.12.29.18s.07.13.07.23c0,.13-.05.25-.14.35s-.21.18-.37.22c-.28.09-.76.13-1.42.13-.75,0-1.28-.06-1.59-.17-.14-.05-.26-.13-.35-.24s-.13-.22-.13-.34c0-.09.02-.17.07-.22s.16-.11.32-.18c.15-.07.25-.25.28-.54.06-.51.09-1.23.09-2.17s-.03-1.57-.08-1.84-.19-.48-.41-.61c-.16-.09-.28-.18-.34-.27s-.09-.19-.09-.31c0-.19.09-.36.28-.5s.48-.27.88-.4c.27-.08.62-.16,1.05-.23s.74-.11.94-.11c.31,0,.46.19.46.57,0,.12-.02.41-.06.86-.05.7-.08,1.34-.09,1.92Z"/>
        <path class="cls-2" d="M26.01,11.12c-.97,0-1.62-.08-2.11-.26-.38-.14-.71-.37-.97-.68-.32-.38-.48-.83-.48-1.3s.17-.93.49-1.26c.07-.07.14-.14.22-.2.03-.43.05-.98.05-1.66,0-.72-.02-1.12-.03-1.33-.21-.15-.38-.32-.51-.5-.25-.34-.37-.75-.37-1.18,0-.66.3-1.26.86-1.69.34-.26.77-.47,1.37-.65.33-.1.73-.19,1.23-.28.53-.09.9-.13,1.19-.13.98,0,1.96.71,1.96,2.07,0,.14-.02.47-.06.99-.05.64-.07,1.25-.08,1.8v1.87c0,.31,0,.55,0,.73.08.07.16.14.23.22.21.23.45.63.45,1.23,0,.49-.17.96-.51,1.34-.28.32-.66.56-1.09.68-.4.12-.99.19-1.83.19Z"/>
      </g>
      <g>
        <path class="cls-2" d="M31.31,3.66c.71,0,1.34.19,1.88.56.39.27.7.61.93,1.04.24.45.36.91.36,1.39,0,.85-.39,1.57-1.17,2.16-.74.57-1.59.85-2.55.85s-1.69-.27-2.27-.8c-.56-.52-.84-1.19-.84-2.02,0-.92.34-1.68,1.03-2.26.72-.62,1.59-.93,2.62-.93ZM30.84,5.02c-.17,0-.31.06-.41.19s-.16.3-.16.51c0,.23.04.55.13.96s.19.76.31,1.08c.12.32.32.48.59.48.35,0,.52-.22.52-.66,0-.33-.04-.7-.13-1.12s-.19-.76-.32-1.02c-.13-.27-.31-.4-.54-.41Z"/>
        <path class="cls-2" d="M30.77,11.16c-1.32,0-2.42-.4-3.28-1.19-.87-.8-1.33-1.88-1.33-3.12,0-1.36.54-2.53,1.56-3.4.99-.85,2.2-1.28,3.59-1.28,1.02,0,1.94.28,2.73.82.58.4,1.05.92,1.4,1.55.37.67.55,1.38.55,2.12,0,.92-.3,2.25-1.76,3.35-1.01.77-2.17,1.16-3.46,1.16ZM32.11,7.2s0,0,0,0c0,0,0,0,0,0Z"/>
      </g>
      <g>
        <path class="cls-2" d="M37.64,3.67c.7,0,1.31.17,1.84.52.5.33.76.74.76,1.24,0,.34-.12.62-.35.83-.22.2-.48.3-.79.3-.32,0-.57-.12-.73-.35-.05-.07-.12-.26-.22-.57-.11-.33-.31-.49-.6-.49-.21,0-.4.09-.54.28s-.22.42-.22.69c0,.47.17.88.5,1.25.27.29.62.44,1.03.44.2,0,.36-.02.49-.05s.31-.1.52-.2c.05-.03.12-.04.18-.04.13,0,.25.06.35.19s.15.27.15.44-.07.36-.22.55-.33.36-.57.51c-.51.31-1.11.47-1.8.47-.8,0-1.49-.23-2.06-.7-.73-.59-1.09-1.35-1.09-2.27s.34-1.61,1.01-2.19c.64-.55,1.43-.83,2.35-.83Z"/>
        <path class="cls-2" d="M37.43,11.16c-1.16,0-2.17-.35-3.01-1.05-1.07-.87-1.63-2.06-1.63-3.42s.53-2.47,1.54-3.33c.92-.79,2.04-1.19,3.33-1.19.99,0,1.88.26,2.66.77.93.61,1.43,1.49,1.43,2.49,0,.6-.18,1.15-.53,1.6.2.33.3.71.3,1.11,0,.51-.17.99-.52,1.45-.26.34-.59.64-.98.88-.75.46-1.62.69-2.59.69ZM40,8.89s-.03.02-.05.02c.02,0,.03-.01.05-.02Z"/>
      </g>
      <g>
        <path class="cls-2" d="M43.37,3.66c.68,0,1.26.17,1.73.52.25.18.42.39.52.63s.15.56.15.98v.87c-.01.61.03,1,.12,1.18.04.09.08.14.12.16s.12.04.25.06.19.1.19.25c0,.19-.08.38-.23.59s-.34.37-.58.51c-.29.17-.6.26-.92.26-.41,0-.73-.14-.97-.42-.08-.1-.16-.15-.23-.15-.08,0-.18.05-.31.15-.39.29-.83.43-1.33.43s-.93-.11-1.24-.33c-.21-.14-.37-.33-.49-.57s-.18-.48-.18-.73c0-.41.16-.77.49-1.08.51-.49,1.28-.74,2.3-.74.23,0,.37-.02.43-.07s.09-.15.09-.31c0-.41-.04-.71-.13-.9s-.23-.28-.42-.28c-.12,0-.22.04-.31.11s-.21.2-.34.39c-.35.5-.71.74-1.09.74-.19,0-.35-.06-.47-.17s-.18-.26-.18-.45.08-.38.23-.56.35-.35.61-.49c.71-.38,1.45-.56,2.21-.56ZM42.97,7.05c-.17,0-.32.07-.45.21s-.19.31-.19.5.04.34.13.45.21.17.36.17c.31,0,.47-.26.47-.79,0-.21-.02-.36-.07-.43s-.13-.11-.25-.12Z"/>
        <path class="cls-2" d="M44.71,11.16c-.49,0-.93-.11-1.33-.31-.47.21-.98.31-1.51.31-.82,0-1.52-.2-2.09-.59-.41-.29-.74-.66-.97-1.11-.23-.45-.35-.93-.35-1.42,0-.64.21-1.25.6-1.76-.16-.3-.24-.64-.24-1s.1-.93.56-1.5c.27-.34.63-.63,1.06-.87,1.86-.99,4.07-1.02,5.54.06.48.35.82.77,1.02,1.26.18.43.27.94.27,1.56v.89c-.01.09-.01.16,0,.23.43.32.68.82.68,1.4,0,.51-.17,1.01-.52,1.48-.27.37-.62.68-1.04.92-.51.3-1.08.46-1.67.46ZM42.6,10.21s.01.02.02.03c0,0-.01-.02-.02-.03ZM41.88,7.83s.04.08.06.12c.04.07.09.13.14.19.08-.02.16-.06.23-.11.17-.13.35-.23.54-.31-.4,0-.72.03-.97.11ZM43.62,7.59c.06,0,.12.01.2.02,0-.03-.02-.06-.03-.09-.05.03-.11.05-.16.07Z"/>
      </g>
      <g>
        <path class="cls-2" d="M49.7,5.2v1.98c0,.23.06.43.17.57s.26.22.44.22c.15,0,.35-.07.6-.21.06-.04.12-.05.18-.05.09,0,.18.06.26.17s.12.24.12.37c0,.24-.13.47-.4.7-.55.47-1.23.71-2.02.71-.62,0-1.13-.18-1.51-.53s-.57-.82-.57-1.4v-2.71c0-.09-.01-.15-.03-.17s-.08-.03-.17-.03h-.6c-.11,0-.19-.02-.22-.06s-.05-.12-.05-.26v-.26c0-.12.05-.2.13-.26l2.68-1.69c.07-.04.15-.05.25-.05h.47c.1,0,.16.02.2.07s.05.13.05.27v.79c0,.12.02.19.06.23s.12.05.24.05h1.08c.14,0,.24.03.28.08s.06.17.06.34v.35c0,.19-.03.32-.08.39s-.15.11-.3.11h-1.06c-.11,0-.18.02-.22.06s-.06.11-.06.22Z"/>
        <path class="cls-2" d="M49.06,11.16c-1,0-1.88-.32-2.53-.93-.68-.64-1.04-1.5-1.04-2.49v-1.53c-.31-.12-.53-.3-.67-.47-.4-.47-.4-1.04-.4-1.23v-.26c.02-.66.32-1.2.83-1.52l2.79-1.75c.29-.15.6-.23.95-.23h.47c.57,0,1.08.25,1.4.68.18.25.27.51.31.73.71.02,1.13.35,1.36.63.4.49.4,1.09.4,1.28v.35c0,.53-.13.95-.39,1.29-.14.18-.41.46-.85.6.35.13.67.37.9.71.25.36.38.79.38,1.22,0,.49-.16,1.2-.93,1.85-.82.7-1.83,1.06-2.98,1.06ZM51.69,9.06s-.04.02-.06.03c.02-.01.04-.02.06-.03ZM48.36,4.32s.02.04.02.06c.01-.03.03-.05.04-.08,0,0,0,0,0-.01l-.06.04Z"/>
      </g>
      <g>
        <path class="cls-2" d="M54.44,4.07v3.4c0,.27.02.47.07.59s.15.24.3.35c.12.09.2.16.24.22s.06.14.06.23c0,.5-.64.76-1.92.76-.69,0-1.23-.05-1.63-.16-.14-.04-.25-.11-.33-.21s-.13-.21-.13-.33c0-.11.02-.19.06-.25s.15-.15.33-.28c.12-.09.21-.24.26-.44s.08-.51.08-.91c0-.13,0-.37-.03-.72s-.03-.56-.04-.62c-.02-.16-.13-.28-.33-.37-.24-.11-.36-.26-.36-.47,0-.25.16-.43.47-.55.44-.17.91-.31,1.41-.43s.89-.18,1.16-.18c.21,0,.32.12.32.36ZM53.28,1.51c.34,0,.61.06.81.19s.3.3.3.51c0,.3-.15.54-.45.71-.48.28-1.05.42-1.73.42-.29,0-.51-.05-.68-.16-.23-.14-.34-.34-.34-.59,0-.34.24-.6.72-.79.49-.2.95-.29,1.37-.29Z"/>
        <path class="cls-2" d="M53.19,11.12c-.83,0-1.49-.07-2.03-.22-.44-.12-.8-.36-1.08-.67-.32-.37-.49-.83-.49-1.31,0-.54.19-.91.35-1.13.09-.13.21-.25.36-.38,0-.08.01-.2.01-.36,0-.12,0-.33-.02-.65h0c-.47-.38-.73-.92-.73-1.53,0-.45.14-.85.39-1.19-.18-.32-.28-.69-.28-1.08,0-.46.16-1.59,1.67-2.18,1.34-.53,2.67-.53,3.54.03.63.4.99,1.05.99,1.78,0,.32-.06.63-.19.91.15.28.24.6.24.95v3.33c.14.13.26.26.35.4.21.31.32.68.32,1.07,0,.84-.44,2.26-3.42,2.26Z"/>
      </g>
      <g>
        <path class="cls-2" d="M58.48,3.66c.71,0,1.34.19,1.88.56.39.27.7.61.93,1.04.24.45.36.91.36,1.39,0,.85-.39,1.57-1.17,2.16-.74.57-1.59.85-2.55.85s-1.69-.27-2.27-.8c-.56-.52-.84-1.19-.84-2.02,0-.92.34-1.68,1.03-2.26.72-.62,1.59-.93,2.62-.93ZM58.01,5.02c-.17,0-.31.06-.41.19s-.16.3-.16.51c0,.23.04.55.13.96s.19.76.31,1.08c.12.32.32.48.59.48.35,0,.52-.22.52-.66,0-.33-.04-.7-.13-1.12s-.19-.76-.32-1.02c-.13-.27-.31-.4-.54-.41Z"/>
        <path class="cls-2" d="M57.94,11.16c-1.32,0-2.42-.4-3.28-1.19-.87-.8-1.33-1.88-1.33-3.12,0-1.36.54-2.53,1.56-3.4.99-.85,2.2-1.28,3.59-1.28,1.02,0,1.94.28,2.73.82.58.4,1.05.92,1.4,1.55.37.67.55,1.38.55,2.12,0,.92-.3,2.25-1.76,3.35-1.01.77-2.17,1.16-3.46,1.16ZM59.29,7.2s0,0,0,0c0,0,0,0,0,0Z"/>
      </g>
      <g>
        <path class="cls-2" d="M68.59,5.83l.08,2.06c0,.16.03.27.07.35s.16.22.36.43c.06.06.09.15.09.26,0,.26-.15.44-.46.54s-.86.15-1.65.15c-.54,0-.92-.05-1.14-.14-.23-.1-.35-.26-.35-.47,0-.08.01-.14.04-.17s.1-.13.23-.27c.16-.16.23-.71.23-1.64,0-.54-.06-.94-.19-1.2-.1-.21-.29-.31-.56-.31s-.44.08-.54.25-.15.47-.15.91v1.16c0,.23.01.39.04.47s.13.25.29.5c.04.07.06.15.06.24,0,.23-.16.4-.48.51s-.82.16-1.5.16c-1.09,0-1.63-.22-1.63-.67,0-.09.02-.17.05-.21s.11-.12.24-.21c.1-.07.17-.16.19-.25s.05-.33.08-.71c.03-.45.04-.91.04-1.4,0-.27-.02-.45-.06-.53s-.16-.19-.35-.31c-.17-.11-.25-.23-.25-.39s.07-.28.21-.38.42-.23.84-.38c.38-.13.74-.25,1.08-.34s.59-.14.71-.14c.12,0,.22.04.3.13s.12.19.12.3c0,.01,0,.06,0,.15,0,.03,0,.06,0,.08,0,.19.08.28.23.28.09,0,.19-.07.3-.22.34-.48.82-.73,1.46-.73.49,0,.91.13,1.27.39.25.18.42.4.52.65s.16.61.18,1.09Z"/>
        <path class="cls-2" d="M63.07,11.13c-2.82,0-3.13-1.52-3.13-2.17,0-.4.1-.76.31-1.06.07-.1.15-.19.24-.29,0-.04,0-.08,0-.13.02-.35.03-.72.04-1.1-.44-.39-.67-.89-.67-1.44,0-.63.3-1.22.82-1.6.27-.19.63-.37,1.22-.58.42-.15.82-.27,1.21-.38.5-.13.83-.19,1.1-.19.36,0,.7.1,1,.28.42-.19.9-.29,1.4-.29.82,0,1.54.23,2.15.68.48.36.82.8,1.02,1.31.16.41.25.91.28,1.57h0s.07,1.84.07,1.84c.01.01.02.02.04.04.32.34.5.8.5,1.29,0,.91-.57,1.66-1.49,1.96-.48.16-1.13.23-2.12.23-.77,0-1.3-.08-1.72-.26-.04-.02-.07-.03-.11-.05-.06.02-.12.05-.18.07-.49.17-1.12.24-1.98.24Z"/>
      </g>
    </g>
    <g>
      <path class="cls-1" d="M5.15,3.66c.71,0,1.34.19,1.88.56.39.27.7.61.93,1.04.24.45.36.91.36,1.39,0,.85-.39,1.57-1.17,2.16-.74.57-1.59.85-2.55.85s-1.69-.27-2.27-.8c-.56-.52-.84-1.19-.84-2.02,0-.92.34-1.68,1.03-2.26.72-.62,1.59-.93,2.62-.93ZM4.68,5.02c-.17,0-.31.06-.41.19s-.16.3-.16.51c0,.23.04.55.13.96s.19.76.31,1.08c.12.32.32.48.59.48.35,0,.52-.22.52-.66,0-.33-.04-.7-.13-1.12s-.19-.76-.32-1.02c-.13-.27-.31-.4-.54-.41Z"/>
      <path class="cls-1" d="M11.36,4v3.18c0,.68.22,1.02.67,1.02.11,0,.22-.03.33-.1s.19-.14.23-.24c.09-.19.13-.61.13-1.25s-.02-1.08-.06-1.31c-.02-.1-.04-.17-.08-.21s-.11-.1-.22-.16c-.22-.12-.33-.27-.33-.45,0-.24.19-.41.57-.5.73-.18,1.44-.27,2.15-.27.39,0,.59.21.59.63,0,.04,0,.13,0,.26,0,.19-.01.42-.02.69v2.58c0,.13.11.25.34.36.19.09.29.23.29.41,0,.35-.42.62-1.25.81-.49.11-.96.17-1.42.17-.19,0-.32-.02-.38-.06s-.11-.13-.12-.25c-.02-.24-.09-.36-.22-.36-.05,0-.09.01-.13.03s-.16.1-.36.24c-.39.27-.82.4-1.27.4-.75,0-1.28-.22-1.59-.65-.26-.36-.39-.97-.39-1.83,0-.32,0-.59,0-.82v-.27c0-.34-.03-.58-.09-.74s-.17-.28-.33-.37c-.15-.08-.25-.14-.29-.19s-.06-.11-.06-.19c0-.3.22-.49.67-.59.77-.17,1.53-.25,2.3-.25.23,0,.35.1.35.29Z"/>
      <path class="cls-1" d="M18.42,3.7c.21,0,.33.03.38.09s.08.25.12.56c.02.17.08.26.18.26.08,0,.15-.06.22-.17.31-.49.72-.73,1.22-.73.36,0,.65.12.87.35.11.11.2.26.27.44s.11.35.11.51c0,.18-.04.37-.13.57s-.2.35-.33.48c-.25.24-.56.36-.92.36-.2,0-.37-.04-.5-.11s-.31-.21-.53-.43c-.08-.08-.16-.12-.23-.12-.11,0-.18.06-.21.18s-.05.38-.05.78c0,.59.02.99.06,1.21.03.12.07.2.11.24s.15.09.31.14c.35.11.53.29.53.55,0,.16-.06.3-.17.42s-.26.2-.45.24c-.38.08-.93.12-1.65.12s-1.22-.06-1.58-.18c-.32-.11-.48-.3-.48-.57,0-.2.12-.38.35-.54.11-.07.19-.14.23-.2s.07-.14.09-.25c.06-.36.09-1.01.09-1.97,0-.18-.02-.3-.06-.38s-.12-.14-.23-.18c-.28-.11-.42-.27-.42-.47,0-.19.1-.35.29-.48s.51-.27.96-.4c.6-.18,1.11-.27,1.54-.28Z"/>
      <path class="cls-1" d="M27.24,4.86v1.88c0,.83.01,1.32.04,1.45s.12.24.29.32c.14.06.24.12.29.18s.07.13.07.23c0,.13-.05.25-.14.35s-.21.18-.37.22c-.28.09-.76.13-1.42.13-.75,0-1.28-.06-1.59-.17-.14-.05-.26-.13-.35-.24s-.13-.22-.13-.34c0-.09.02-.17.07-.22s.16-.11.32-.18c.15-.07.25-.25.28-.54.06-.51.09-1.23.09-2.17s-.03-1.57-.08-1.84-.19-.48-.41-.61c-.16-.09-.28-.18-.34-.27s-.09-.19-.09-.31c0-.19.09-.36.28-.5s.48-.27.88-.4c.27-.08.62-.16,1.05-.23s.74-.11.94-.11c.31,0,.46.19.46.57,0,.12-.02.41-.06.86-.05.7-.08,1.34-.09,1.92Z"/>
      <path class="cls-1" d="M31.31,3.66c.71,0,1.34.19,1.88.56.39.27.7.61.93,1.04.24.45.36.91.36,1.39,0,.85-.39,1.57-1.17,2.16-.74.57-1.59.85-2.55.85s-1.69-.27-2.27-.8c-.56-.52-.84-1.19-.84-2.02,0-.92.34-1.68,1.03-2.26.72-.62,1.59-.93,2.62-.93ZM30.84,5.02c-.17,0-.31.06-.41.19s-.16.3-.16.51c0,.23.04.55.13.96s.19.76.31,1.08c.12.32.32.48.59.48.35,0,.52-.22.52-.66,0-.33-.04-.7-.13-1.12s-.19-.76-.32-1.02c-.13-.27-.31-.4-.54-.41Z"/>
      <path class="cls-1" d="M37.64,3.67c.7,0,1.31.17,1.84.52.5.33.76.74.76,1.24,0,.34-.12.62-.35.83-.22.2-.48.3-.79.3-.32,0-.57-.12-.73-.35-.05-.07-.12-.26-.22-.57-.11-.33-.31-.49-.6-.49-.21,0-.4.09-.54.28s-.22.42-.22.69c0,.47.17.88.5,1.25.27.29.62.44,1.03.44.2,0,.36-.02.49-.05s.31-.1.52-.2c.05-.03.12-.04.18-.04.13,0,.25.06.35.19s.15.27.15.44-.07.36-.22.55-.33.36-.57.51c-.51.31-1.11.47-1.8.47-.8,0-1.49-.23-2.06-.7-.73-.59-1.09-1.35-1.09-2.27s.34-1.61,1.01-2.19c.64-.55,1.43-.83,2.35-.83Z"/>
      <path class="cls-1" d="M43.37,3.66c.68,0,1.26.17,1.73.52.25.18.42.39.52.63s.15.56.15.98v.87c-.01.61.03,1,.12,1.18.04.09.08.14.12.16s.12.04.25.06.19.1.19.25c0,.19-.08.38-.23.59s-.34.37-.58.51c-.29.17-.6.26-.92.26-.41,0-.73-.14-.97-.42-.08-.1-.16-.15-.23-.15-.08,0-.18.05-.31.15-.39.29-.83.43-1.33.43s-.93-.11-1.24-.33c-.21-.14-.37-.33-.49-.57s-.18-.48-.18-.73c0-.41.16-.77.49-1.08.51-.49,1.28-.74,2.3-.74.23,0,.37-.02.43-.07s.09-.15.09-.31c0-.41-.04-.71-.13-.9s-.23-.28-.42-.28c-.12,0-.22.04-.31.11s-.21.2-.34.39c-.35.5-.71.74-1.09.74-.19,0-.35-.06-.47-.17s-.18-.26-.18-.45.08-.38.23-.56.35-.35.61-.49c.71-.38,1.45-.56,2.21-.56ZM42.97,7.05c-.17,0-.32.07-.45.21s-.19.31-.19.5.04.34.13.45.21.17.36.17c.31,0,.47-.26.47-.79,0-.21-.02-.36-.07-.43s-.13-.11-.25-.12Z"/>
      <path class="cls-1" d="M49.7,5.2v1.98c0,.23.06.43.17.57s.26.22.44.22c.15,0,.35-.07.6-.21.06-.04.12-.05.18-.05.09,0,.18.06.26.17s.12.24.12.37c0,.24-.13.47-.4.7-.55.47-1.23.71-2.02.71-.62,0-1.13-.18-1.51-.53s-.57-.82-.57-1.4v-2.71c0-.09-.01-.15-.03-.17s-.08-.03-.17-.03h-.6c-.11,0-.19-.02-.22-.06s-.05-.12-.05-.26v-.26c0-.12.05-.2.13-.26l2.68-1.69c.07-.04.15-.05.25-.05h.47c.1,0,.16.02.2.07s.05.13.05.27v.79c0,.12.02.19.06.23s.12.05.24.05h1.08c.14,0,.24.03.28.08s.06.17.06.34v.35c0,.19-.03.32-.08.39s-.15.11-.3.11h-1.06c-.11,0-.18.02-.22.06s-.06.11-.06.22Z"/>
      <path class="cls-1" d="M54.44,4.07v3.4c0,.27.02.47.07.59s.15.24.3.35c.12.09.2.16.24.22s.06.14.06.23c0,.5-.64.76-1.92.76-.69,0-1.23-.05-1.63-.16-.14-.04-.25-.11-.33-.21s-.13-.21-.13-.33c0-.11.02-.19.06-.25s.15-.15.33-.28c.12-.09.21-.24.26-.44s.08-.51.08-.91c0-.13,0-.37-.03-.72s-.03-.56-.04-.62c-.02-.16-.13-.28-.33-.37-.24-.11-.36-.26-.36-.47,0-.25.16-.43.47-.55.44-.17.91-.31,1.41-.43s.89-.18,1.16-.18c.21,0,.32.12.32.36ZM53.28,1.51c.34,0,.61.06.81.19s.3.3.3.51c0,.3-.15.54-.45.71-.48.28-1.05.42-1.73.42-.29,0-.51-.05-.68-.16-.23-.14-.34-.34-.34-.59,0-.34.24-.6.72-.79.49-.2.95-.29,1.37-.29Z"/>
      <path class="cls-1" d="M58.48,3.66c.71,0,1.34.19,1.88.56.39.27.7.61.93,1.04.24.45.36.91.36,1.39,0,.85-.39,1.57-1.17,2.16-.74.57-1.59.85-2.55.85s-1.69-.27-2.27-.8c-.56-.52-.84-1.19-.84-2.02,0-.92.34-1.68,1.03-2.26.72-.62,1.59-.93,2.62-.93ZM58.01,5.02c-.17,0-.31.06-.41.19s-.16.3-.16.51c0,.23.04.55.13.96s.19.76.31,1.08c.12.32.32.48.59.48.35,0,.52-.22.52-.66,0-.33-.04-.7-.13-1.12s-.19-.76-.32-1.02c-.13-.27-.31-.4-.54-.41Z"/>
      <path class="cls-1" d="M68.59,5.83l.08,2.06c0,.16.03.27.07.35s.16.22.36.43c.06.06.09.15.09.26,0,.26-.15.44-.46.54s-.86.15-1.65.15c-.54,0-.92-.05-1.14-.14-.23-.1-.35-.26-.35-.47,0-.08.01-.14.04-.17s.1-.13.23-.27c.16-.16.23-.71.23-1.64,0-.54-.06-.94-.19-1.2-.1-.21-.29-.31-.56-.31s-.44.08-.54.25-.15.47-.15.91v1.16c0,.23.01.39.04.47s.13.25.29.5c.04.07.06.15.06.24,0,.23-.16.4-.48.51s-.82.16-1.5.16c-1.09,0-1.63-.22-1.63-.67,0-.09.02-.17.05-.21s.11-.12.24-.21c.1-.07.17-.16.19-.25s.05-.33.08-.71c.03-.45.04-.91.04-1.4,0-.27-.02-.45-.06-.53s-.16-.19-.35-.31c-.17-.11-.25-.23-.25-.39s.07-.28.21-.38.42-.23.84-.38c.38-.13.74-.25,1.08-.34s.59-.14.71-.14c.12,0,.22.04.3.13s.12.19.12.3c0,.01,0,.06,0,.15,0,.03,0,.06,0,.08,0,.19.08.28.23.28.09,0,.19-.07.3-.22.34-.48.82-.73,1.46-.73.49,0,.91.13,1.27.39.25.18.42.4.52.65s.16.61.18,1.09Z"/>
    </g>
  </g>
</svg>