<?xml version="1.0" encoding="UTF-8"?>
<svg id="Layer_2" data-name="Layer 2" xmlns="http://www.w3.org/2000/svg" viewBox="0 0 57.38 24.24">
  <defs>
    <style>
      .cls-1 {
        fill: #372822;
      }

      .cls-2 {
        fill: #fff;
      }

      .cls-3 {
        fill: #ed1c24;
      }

      .cls-4 {
        fill: #f7f7f7;
      }

      .cls-5 {
        fill: #382922;
      }

      .cls-6 {
        fill: #edad99;
      }

      .cls-7 {
        fill: #ffca29;
      }

      .cls-8 {
        fill: #fec20e;
      }
    </style>
  </defs>
  <g id="Layer_1-2" data-name="Layer 1">
    <path class="cls-3" d="M20.91,13.11s-2.14,1.27-1.47,2.4,5.43,1.28,5.43,1.28l5.59-.53,2.43.88,2.43.35,1-1.23s.45-1.16-.8-2.08-6.79-1.13-6.79-1.13l-6.46.24-1.38-.18Z"/>
    <g>
      <rect class="cls-7" x="33.66" y="16.68" width="9.61" height="3.6"/>
      <g>
        <g>
          <path class="cls-3" d="M5.15,16.74c.71,0,1.34.19,1.88.56.39.27.7.61.93,1.04.24.45.36.91.36,1.39,0,.85-.39,1.57-1.17,2.16-.74.57-1.59.85-2.55.85s-1.69-.27-2.27-.8c-.56-.52-.84-1.19-.84-2.02,0-.92.34-1.68,1.03-2.26.72-.62,1.59-.93,2.62-.93ZM4.68,18.09c-.17,0-.31.06-.41.19s-.16.3-.16.51c0,.23.04.55.13.96s.19.76.31,1.08c.12.32.32.48.59.48.35,0,.52-.22.52-.66,0-.33-.04-.7-.13-1.12s-.19-.76-.32-1.02c-.13-.27-.31-.4-.54-.41Z"/>
          <path class="cls-3" d="M4.61,24.24c-1.32,0-2.42-.4-3.28-1.19-.87-.8-1.33-1.88-1.33-3.12,0-1.36.54-2.53,1.56-3.4.99-.85,2.2-1.28,3.59-1.28,1.02,0,1.94.28,2.73.82.58.4,1.05.92,1.4,1.55.37.67.55,1.38.55,2.12,0,.92-.3,2.25-1.76,3.35-1.01.77-2.17,1.16-3.46,1.16ZM5.96,20.28s0,0,0,0c0,0,0,0,0,0Z"/>
        </g>
        <g>
          <path class="cls-3" d="M11.36,17.08v3.18c0,.68.22,1.02.67,1.02.11,0,.22-.03.33-.1s.19-.14.23-.24c.09-.19.13-.61.13-1.25s-.02-1.08-.06-1.31c-.02-.1-.04-.17-.08-.21s-.11-.1-.22-.16c-.22-.12-.33-.27-.33-.45,0-.24.19-.41.57-.5.73-.18,1.44-.27,2.15-.27.39,0,.59.21.59.63,0,.04,0,.13,0,.26,0,.19-.01.42-.02.69v2.58c0,.13.11.25.34.36.19.09.29.23.29.41,0,.35-.42.62-1.25.81-.49.11-.96.17-1.42.17-.19,0-.32-.02-.38-.06s-.11-.13-.12-.25c-.02-.24-.09-.36-.22-.36-.05,0-.09.01-.13.03s-.16.1-.36.24c-.39.27-.82.4-1.27.4-.75,0-1.28-.22-1.59-.65-.26-.36-.39-.97-.39-1.83,0-.32,0-.59,0-.82v-.27c0-.34-.03-.58-.09-.74s-.17-.28-.33-.37c-.15-.08-.25-.14-.29-.19s-.06-.11-.06-.19c0-.3.22-.49.67-.59.77-.17,1.53-.25,2.3-.25.23,0,.35.1.35.29Z"/>
          <path class="cls-3" d="M13.28,24.2c-.29,0-.72-.03-1.13-.26-.43.17-.88.26-1.35.26-1.57,0-2.39-.7-2.81-1.28-.45-.62-.67-1.51-.67-2.7,0-.33,0-.61,0-.85v-.24h0c-.13-.1-.24-.2-.34-.31-.28-.32-.43-.73-.43-1.18,0-.8.49-1.76,1.86-2.06.86-.19,1.75-.29,2.62-.29.42,0,.81.13,1.11.34.04-.01.07-.02.11-.03.84-.21,1.68-.31,2.51-.31,1.23,0,2.09.88,2.09,2.13v.31c-.01.2-.02.41-.02.66v1.92c.4.37.63.87.63,1.42,0,.79-.42,1.82-2.41,2.28-.59.14-1.19.21-1.75.21ZM13.05,16.68h0s0,0,0,0Z"/>
        </g>
        <g>
          <path class="cls-3" d="M18.42,16.78c.21,0,.33.03.38.09s.08.25.12.56c.02.17.08.26.18.26.08,0,.15-.06.22-.17.31-.49.72-.73,1.22-.73.36,0,.65.12.87.35.11.11.2.26.27.44s.11.35.11.51c0,.18-.04.37-.13.57s-.2.35-.33.48c-.25.24-.56.36-.92.36-.2,0-.37-.04-.5-.11s-.31-.21-.53-.43c-.08-.08-.16-.12-.23-.12-.11,0-.18.06-.21.18s-.05.38-.05.78c0,.59.02.99.06,1.21.03.12.07.2.11.24s.15.09.31.14c.35.11.53.29.53.55,0,.16-.06.3-.17.42s-.26.2-.45.24c-.38.08-.93.12-1.65.12s-1.22-.06-1.58-.18c-.32-.11-.48-.3-.48-.57,0-.2.12-.38.35-.54.11-.07.19-.14.23-.2s.07-.14.09-.25c.06-.36.09-1.01.09-1.97,0-.18-.02-.3-.06-.38s-.12-.14-.23-.18c-.28-.11-.42-.27-.42-.47,0-.19.1-.35.29-.48s.51-.27.96-.4c.6-.18,1.11-.27,1.54-.28Z"/>
          <path class="cls-3" d="M17.63,24.2c-.86,0-1.54-.08-2.05-.26-.93-.32-1.5-1.08-1.5-1.99,0-.36.1-1.01.73-1.57.02-.2.03-.5.04-.95-.45-.37-.71-.9-.71-1.49,0-.67.34-1.3.92-1.71.33-.23.78-.43,1.4-.61.74-.22,1.38-.33,1.95-.34h.01c.4,0,.74.07,1.03.22.34-.14.71-.22,1.1-.22.76,0,1.43.27,1.94.79.26.26.45.58.59.94.14.35.21.71.21,1.06,0,.39-.09.79-.26,1.17-.17.38-.4.71-.69.98-.34.33-.76.55-1.23.67.21.33.29.7.29,1.03,0,.54-.21,1.06-.58,1.45-.32.34-.75.57-1.23.67-.48.1-1.12.15-1.96.15ZM14.77,20.71s0,.01,0,.02c0,0,0-.01,0-.02ZM18.33,20.02h0s0,0,0,0ZM18.42,16.78v.71s0,0,0,0v-.7ZM16.6,17.02s0,0,0,0c0,0,0,0,0,0ZM18.06,16.7v.02s0-.02,0-.02Z"/>
        </g>
        <g>
          <path class="cls-3" d="M26.74,16.79c.22,0,.33.16.33.47v.1c0,.06,0,.11,0,.15,0,.21.06.32.19.32.07,0,.17-.08.31-.25.21-.24.48-.43.8-.58s.65-.21.98-.21c.65,0,1.11.24,1.36.71.1.18.18.26.24.26.04,0,.14-.08.3-.23.51-.5,1.08-.74,1.73-.74.5,0,.92.14,1.24.42.34.29.5.72.5,1.3,0,.12,0,.34-.01.63,0,.1-.01.41-.01.92,0,.33,0,.56,0,.69,0,.08,0,.14,0,.18,0,.25.08.47.23.66.09.11.15.19.17.23s.03.09.03.15c0,.5-.59.75-1.76.75-.52,0-.94-.06-1.26-.19s-.48-.29-.48-.49c0-.08.01-.14.03-.18s.1-.15.23-.33c.12-.16.18-.69.18-1.6,0-.53-.04-.89-.11-1.1-.09-.25-.26-.37-.52-.37-.13,0-.24.04-.34.12s-.17.18-.2.3c-.04.14-.05.52-.06,1.12.01.66.03,1.05.06,1.2s.13.34.3.59c.04.06.06.13.06.22,0,.46-.61.7-1.82.7-.73,0-1.22-.05-1.48-.16-.2-.09-.3-.24-.3-.46,0-.1.01-.17.04-.21s.11-.13.26-.27c.09-.08.14-.16.17-.23s.04-.2.06-.4c.03-.43.04-.86.04-1.3,0-.77-.2-1.15-.59-1.15-.29,0-.47.16-.52.49-.05.31-.07.75-.07,1.32,0,.43,0,.71.03.84s.07.27.14.42c.09.17.14.3.14.41,0,.25-.18.43-.53.53-.39.11-.81.16-1.28.16-.6,0-1.04-.05-1.32-.14s-.42-.25-.42-.45c0-.08.02-.14.06-.2s.12-.14.25-.26c.18-.16.28-.38.3-.66.04-.48.06-.99.06-1.51,0-.37-.02-.63-.06-.78s-.12-.26-.24-.35c-.12-.09-.19-.16-.23-.21s-.05-.11-.05-.19c0-.26.21-.47.62-.62.99-.36,1.73-.54,2.22-.54Z"/>
          <path class="cls-3" d="M33.36,24.2c-.72,0-1.31-.1-1.8-.29-.04-.01-.07-.03-.11-.04-.48.2-1.13.33-2.02.33-.96,0-1.57-.08-2.03-.27-.06.02-.12.04-.19.06-.52.14-1.08.21-1.67.21-.79,0-1.36-.07-1.81-.22-1.06-.36-1.44-1.21-1.44-1.87,0-.38.11-.74.31-1.04.08-.12.18-.24.32-.37.03-.39.04-.79.04-1.21,0-.07,0-.13,0-.19-.1-.09-.17-.18-.24-.28-.21-.3-.33-.67-.33-1.06,0-.43.16-1.49,1.59-2.03,1.19-.43,2.05-.63,2.73-.63h.01c.37,0,.74.11,1.05.33,1.14-.5,2.46-.41,3.33.16,1.36-.77,3.04-.61,4.08.29.46.4,1.02,1.15,1.02,2.43,0,.13,0,.36-.01.67,0,.18-.01.45-.01.88,0,.33,0,.57,0,.71.11.14.17.23.2.29.16.27.23.57.23.9,0,.68-.32,2.25-3.26,2.25ZM36.07,20.62s0,0,0,0c0,0,0,0,0,0ZM23.26,19.53s.01.01.02.02c0,0-.02-.01-.02-.02Z"/>
        </g>
        <g>
          <path class="cls-3" d="M40.28,19.95h-2.75c-.12,0-.18.05-.18.16,0,.25.14.49.41.72s.57.34.89.34c.19,0,.4-.04.62-.11s.42-.16.57-.27c.13-.09.24-.14.32-.14.1,0,.2.06.3.19s.15.25.15.39c0,.28-.18.55-.53.81-.62.46-1.34.7-2.15.7s-1.51-.24-2.06-.71c-.27-.23-.49-.52-.67-.85-.23-.44-.35-.91-.35-1.39,0-.66.2-1.25.6-1.77.34-.45.78-.79,1.31-1.01.4-.17.83-.25,1.29-.25.74,0,1.37.21,1.89.63.26.21.47.46.63.75.18.33.28.65.28.96,0,.25-.05.46-.16.62s-.24.24-.41.24ZM37.68,18.86h.59c.25,0,.38-.12.38-.35,0-.21-.06-.38-.18-.52s-.28-.2-.47-.2c-.22,0-.39.09-.52.26-.12.16-.18.32-.18.49,0,.12.03.2.08.25s.16.07.3.07Z"/>
          <path class="cls-3" d="M37.92,24.24c-1.19,0-2.21-.36-3.04-1.08-.42-.36-.75-.79-1.02-1.29-.35-.66-.52-1.37-.52-2.1,0-.99.3-1.89.9-2.68.5-.66,1.15-1.16,1.93-1.49.58-.24,1.21-.37,1.88-.37,1.09,0,2.05.33,2.84.97.41.33.75.73,1,1.19.31.55.46,1.12.46,1.69,0,.54-.13,1.01-.38,1.42.09.23.13.47.13.72,0,.54-.2,1.32-1.13,2.02-.88.66-1.91.99-3.05.99ZM37.15,18.47s0,.02,0,.03c.12-.03.25-.04.38-.04h1.27s0-.03,0-.05c-.17-.09-.4-.16-.74-.16-.26,0-.5.04-.71.13-.07.03-.13.06-.19.09Z"/>
        </g>
        <g>
          <path class="cls-3" d="M47.74,18.91l.08,2.06c0,.16.03.27.07.35s.16.22.36.43c.06.06.09.15.09.26,0,.26-.15.44-.46.54s-.86.15-1.65.15c-.54,0-.92-.05-1.14-.14-.23-.1-.35-.26-.35-.47,0-.08.01-.14.04-.17s.1-.13.23-.27c.16-.16.23-.71.23-1.64,0-.54-.06-.94-.19-1.2-.1-.21-.29-.31-.56-.31s-.44.08-.54.25-.15.47-.15.91v1.16c0,.23.01.39.04.47s.13.25.29.5c.04.07.06.15.06.24,0,.23-.16.4-.48.51s-.82.16-1.5.16c-1.09,0-1.63-.22-1.63-.67,0-.09.02-.17.05-.21s.11-.12.24-.21c.1-.07.17-.16.19-.25s.05-.33.08-.71c.03-.45.04-.91.04-1.4,0-.27-.02-.45-.06-.53s-.16-.19-.35-.31c-.17-.11-.25-.23-.25-.39s.07-.28.21-.38.42-.23.84-.38c.38-.13.74-.25,1.08-.34s.59-.14.71-.14c.12,0,.22.04.3.13s.12.19.12.3c0,.01,0,.06,0,.15,0,.03,0,.06,0,.08,0,.19.08.28.23.28.09,0,.19-.07.3-.22.34-.48.82-.73,1.46-.73.49,0,.91.13,1.27.39.25.18.42.4.52.65s.16.61.18,1.09Z"/>
          <path class="cls-3" d="M42.23,24.2c-2.82,0-3.13-1.52-3.13-2.17,0-.4.1-.76.31-1.06.07-.1.15-.19.24-.29,0-.04,0-.08,0-.13.02-.35.03-.72.04-1.1-.44-.39-.67-.89-.67-1.44,0-.63.3-1.22.82-1.6.27-.19.63-.37,1.22-.58.42-.15.82-.27,1.21-.38.5-.13.83-.19,1.1-.19.36,0,.7.1,1,.28.42-.19.9-.29,1.4-.29.82,0,1.54.23,2.15.68.48.36.82.8,1.02,1.31.16.41.25.91.28,1.57h0s.07,1.84.07,1.84c.01.01.02.02.04.04.32.34.5.8.5,1.29,0,.91-.57,1.66-1.49,1.96-.48.16-1.13.23-2.12.23-.77,0-1.3-.08-1.72-.26-.04-.02-.07-.03-.11-.05-.06.02-.12.05-.18.07-.49.17-1.12.24-1.98.24Z"/>
        </g>
        <g>
          <path class="cls-3" d="M51.29,17.08v3.18c0,.68.22,1.02.67,1.02.11,0,.22-.03.33-.1s.19-.14.23-.24c.09-.19.13-.61.13-1.25s-.02-1.08-.06-1.31c-.02-.1-.04-.17-.08-.21s-.11-.1-.22-.16c-.22-.12-.33-.27-.33-.45,0-.24.19-.41.57-.5.73-.18,1.44-.27,2.15-.27.39,0,.59.21.59.63,0,.04,0,.13,0,.26,0,.19-.01.42-.02.69v2.58c0,.13.11.25.34.36.19.09.29.23.29.41,0,.35-.42.62-1.25.81-.49.11-.96.17-1.42.17-.19,0-.32-.02-.38-.06s-.11-.13-.12-.25c-.02-.24-.09-.36-.22-.36-.05,0-.09.01-.13.03s-.16.1-.36.24c-.39.27-.82.4-1.27.4-.75,0-1.28-.22-1.59-.65-.26-.36-.39-.97-.39-1.83,0-.32,0-.59,0-.82v-.27c0-.34-.03-.58-.09-.74s-.17-.28-.33-.37c-.15-.08-.25-.14-.29-.19s-.06-.11-.06-.19c0-.3.22-.49.67-.59.77-.17,1.53-.25,2.3-.25.23,0,.35.1.35.29Z"/>
          <path class="cls-3" d="M53.21,24.2c-.29,0-.72-.03-1.13-.26-.43.17-.88.26-1.35.26-1.57,0-2.39-.7-2.81-1.28-.45-.62-.67-1.51-.67-2.7,0-.33,0-.61,0-.85v-.24h0c-.13-.1-.24-.2-.34-.31-.28-.32-.43-.73-.43-1.18,0-.8.49-1.76,1.86-2.06.86-.19,1.75-.29,2.62-.29.42,0,.81.13,1.11.34.04-.01.07-.02.11-.03.84-.21,1.68-.31,2.51-.31,1.23,0,2.09.88,2.09,2.13v.31c-.01.2-.02.41-.02.66v1.92c.4.37.63.87.63,1.42,0,.79-.42,1.82-2.41,2.28-.59.14-1.19.21-1.75.21ZM52.99,16.68h0s0,0,0,0Z"/>
        </g>
      </g>
      <g>
        <path class="cls-2" d="M5.15,16.74c.71,0,1.34.19,1.88.56.39.27.7.61.93,1.04.24.45.36.91.36,1.39,0,.85-.39,1.57-1.17,2.16-.74.57-1.59.85-2.55.85s-1.69-.27-2.27-.8c-.56-.52-.84-1.19-.84-2.02,0-.92.34-1.68,1.03-2.26.72-.62,1.59-.93,2.62-.93ZM4.68,18.09c-.17,0-.31.06-.41.19s-.16.3-.16.51c0,.23.04.55.13.96s.19.76.31,1.08c.12.32.32.48.59.48.35,0,.52-.22.52-.66,0-.33-.04-.7-.13-1.12s-.19-.76-.32-1.02c-.13-.27-.31-.4-.54-.41Z"/>
        <path class="cls-2" d="M11.36,17.08v3.18c0,.68.22,1.02.67,1.02.11,0,.22-.03.33-.1s.19-.14.23-.24c.09-.19.13-.61.13-1.25s-.02-1.08-.06-1.31c-.02-.1-.04-.17-.08-.21s-.11-.1-.22-.16c-.22-.12-.33-.27-.33-.45,0-.24.19-.41.57-.5.73-.18,1.44-.27,2.15-.27.39,0,.59.21.59.63,0,.04,0,.13,0,.26,0,.19-.01.42-.02.69v2.58c0,.13.11.25.34.36.19.09.29.23.29.41,0,.35-.42.62-1.25.81-.49.11-.96.17-1.42.17-.19,0-.32-.02-.38-.06s-.11-.13-.12-.25c-.02-.24-.09-.36-.22-.36-.05,0-.09.01-.13.03s-.16.1-.36.24c-.39.27-.82.4-1.27.4-.75,0-1.28-.22-1.59-.65-.26-.36-.39-.97-.39-1.83,0-.32,0-.59,0-.82v-.27c0-.34-.03-.58-.09-.74s-.17-.28-.33-.37c-.15-.08-.25-.14-.29-.19s-.06-.11-.06-.19c0-.3.22-.49.67-.59.77-.17,1.53-.25,2.3-.25.23,0,.35.1.35.29Z"/>
        <path class="cls-2" d="M18.42,16.78c.21,0,.33.03.38.09s.08.25.12.56c.02.17.08.26.18.26.08,0,.15-.06.22-.17.31-.49.72-.73,1.22-.73.36,0,.65.12.87.35.11.11.2.26.27.44s.11.35.11.51c0,.18-.04.37-.13.57s-.2.35-.33.48c-.25.24-.56.36-.92.36-.2,0-.37-.04-.5-.11s-.31-.21-.53-.43c-.08-.08-.16-.12-.23-.12-.11,0-.18.06-.21.18s-.05.38-.05.78c0,.59.02.99.06,1.21.03.12.07.2.11.24s.15.09.31.14c.35.11.53.29.53.55,0,.16-.06.3-.17.42s-.26.2-.45.24c-.38.08-.93.12-1.65.12s-1.22-.06-1.58-.18c-.32-.11-.48-.3-.48-.57,0-.2.12-.38.35-.54.11-.07.19-.14.23-.2s.07-.14.09-.25c.06-.36.09-1.01.09-1.97,0-.18-.02-.3-.06-.38s-.12-.14-.23-.18c-.28-.11-.42-.27-.42-.47,0-.19.1-.35.29-.48s.51-.27.96-.4c.6-.18,1.11-.27,1.54-.28Z"/>
        <path class="cls-2" d="M26.74,16.79c.22,0,.33.16.33.47v.1c0,.06,0,.11,0,.15,0,.21.06.32.19.32.07,0,.17-.08.31-.25.21-.24.48-.43.8-.58s.65-.21.98-.21c.65,0,1.11.24,1.36.71.1.18.18.26.24.26.04,0,.14-.08.3-.23.51-.5,1.08-.74,1.73-.74.5,0,.92.14,1.24.42.34.29.5.72.5,1.3,0,.12,0,.34-.01.63,0,.1-.01.41-.01.92,0,.33,0,.56,0,.69,0,.08,0,.14,0,.18,0,.25.08.47.23.66.09.11.15.19.17.23s.03.09.03.15c0,.5-.59.75-1.76.75-.52,0-.94-.06-1.26-.19s-.48-.29-.48-.49c0-.08.01-.14.03-.18s.1-.15.23-.33c.12-.16.18-.69.18-1.6,0-.53-.04-.89-.11-1.1-.09-.25-.26-.37-.52-.37-.13,0-.24.04-.34.12s-.17.18-.2.3c-.04.14-.05.52-.06,1.12.01.66.03,1.05.06,1.2s.13.34.3.59c.04.06.06.13.06.22,0,.46-.61.7-1.82.7-.73,0-1.22-.05-1.48-.16-.2-.09-.3-.24-.3-.46,0-.1.01-.17.04-.21s.11-.13.26-.27c.09-.08.14-.16.17-.23s.04-.2.06-.4c.03-.43.04-.86.04-1.3,0-.77-.2-1.15-.59-1.15-.29,0-.47.16-.52.49-.05.31-.07.75-.07,1.32,0,.43,0,.71.03.84s.07.27.14.42c.09.17.14.3.14.41,0,.25-.18.43-.53.53-.39.11-.81.16-1.28.16-.6,0-1.04-.05-1.32-.14s-.42-.25-.42-.45c0-.08.02-.14.06-.2s.12-.14.25-.26c.18-.16.28-.38.3-.66.04-.48.06-.99.06-1.51,0-.37-.02-.63-.06-.78s-.12-.26-.24-.35c-.12-.09-.19-.16-.23-.21s-.05-.11-.05-.19c0-.26.21-.47.62-.62.99-.36,1.73-.54,2.22-.54Z"/>
        <path class="cls-2" d="M40.28,19.95h-2.75c-.12,0-.18.05-.18.16,0,.25.14.49.41.72s.57.34.89.34c.19,0,.4-.04.62-.11s.42-.16.57-.27c.13-.09.24-.14.32-.14.1,0,.2.06.3.19s.15.25.15.39c0,.28-.18.55-.53.81-.62.46-1.34.7-2.15.7s-1.51-.24-2.06-.71c-.27-.23-.49-.52-.67-.85-.23-.44-.35-.91-.35-1.39,0-.66.2-1.25.6-1.77.34-.45.78-.79,1.31-1.01.4-.17.83-.25,1.29-.25.74,0,1.37.21,1.89.63.26.21.47.46.63.75.18.33.28.65.28.96,0,.25-.05.46-.16.62s-.24.24-.41.24ZM37.68,18.86h.59c.25,0,.38-.12.38-.35,0-.21-.06-.38-.18-.52s-.28-.2-.47-.2c-.22,0-.39.09-.52.26-.12.16-.18.32-.18.49,0,.12.03.2.08.25s.16.07.3.07Z"/>
        <path class="cls-2" d="M47.74,18.91l.08,2.06c0,.16.03.27.07.35s.16.22.36.43c.06.06.09.15.09.26,0,.26-.15.44-.46.54s-.86.15-1.65.15c-.54,0-.92-.05-1.14-.14-.23-.1-.35-.26-.35-.47,0-.08.01-.14.04-.17s.1-.13.23-.27c.16-.16.23-.71.23-1.64,0-.54-.06-.94-.19-1.2-.1-.21-.29-.31-.56-.31s-.44.08-.54.25-.15.47-.15.91v1.16c0,.23.01.39.04.47s.13.25.29.5c.04.07.06.15.06.24,0,.23-.16.4-.48.51s-.82.16-1.5.16c-1.09,0-1.63-.22-1.63-.67,0-.09.02-.17.05-.21s.11-.12.24-.21c.1-.07.17-.16.19-.25s.05-.33.08-.71c.03-.45.04-.91.04-1.4,0-.27-.02-.45-.06-.53s-.16-.19-.35-.31c-.17-.11-.25-.23-.25-.39s.07-.28.21-.38.42-.23.84-.38c.38-.13.74-.25,1.08-.34s.59-.14.71-.14c.12,0,.22.04.3.13s.12.19.12.3c0,.01,0,.06,0,.15,0,.03,0,.06,0,.08,0,.19.08.28.23.28.09,0,.19-.07.3-.22.34-.48.82-.73,1.46-.73.49,0,.91.13,1.27.39.25.18.42.4.52.65s.16.61.18,1.09Z"/>
        <path class="cls-2" d="M51.29,17.08v3.18c0,.68.22,1.02.67,1.02.11,0,.22-.03.33-.1s.19-.14.23-.24c.09-.19.13-.61.13-1.25s-.02-1.08-.06-1.31c-.02-.1-.04-.17-.08-.21s-.11-.1-.22-.16c-.22-.12-.33-.27-.33-.45,0-.24.19-.41.57-.5.73-.18,1.44-.27,2.15-.27.39,0,.59.21.59.63,0,.04,0,.13,0,.26,0,.19-.01.42-.02.69v2.58c0,.13.11.25.34.36.19.09.29.23.29.41,0,.35-.42.62-1.25.81-.49.11-.96.17-1.42.17-.19,0-.32-.02-.38-.06s-.11-.13-.12-.25c-.02-.24-.09-.36-.22-.36-.05,0-.09.01-.13.03s-.16.1-.36.24c-.39.27-.82.4-1.27.4-.75,0-1.28-.22-1.59-.65-.26-.36-.39-.97-.39-1.83,0-.32,0-.59,0-.82v-.27c0-.34-.03-.58-.09-.74s-.17-.28-.33-.37c-.15-.08-.25-.14-.29-.19s-.06-.11-.06-.19c0-.3.22-.49.67-.59.77-.17,1.53-.25,2.3-.25.23,0,.35.1.35.29Z"/>
      </g>
    </g>
    <g>
      <g>
        <path class="cls-3" d="M33.92,3.22c-1.19-.59-2.89-.82-3.88-1.57-.31-.23-.64-.68-1.03-.78-.65-.17-1.24.22-1.41.82-.84-.3-1.76-.42-2.71-.33-3.47.34-6,3.42-5.67,6.88.27,2.83,2.37,5.03,5.02,5.57.43.41.96.78,1.61,1.08,2.67,1.25,7.11,0,9.57-1.4,4.8-2.75,2.68-8.21-1.51-10.29ZM33.81,10.21s-.05,0-.07-.01c.02,0,.05.01.07.01.02,0,.03,0,.05,0-.02,0-.03,0-.05,0ZM33.72,10.19s-.04-.01-.06-.02c.02,0,.04.01.06.02ZM33.64,10.17s-.02,0-.03-.01c0,0,.02,0,.03.01ZM33.6,10.15s-.07-.04-.1-.06c.03.02.06.04.1.06ZM33.47,10.07s-.03-.02-.04-.03c.01.01.03.02.04.03ZM33.94,10.22s-.03,0-.05,0c.02,0,.03,0,.05,0,.02,0,.03,0,.05,0-.02,0-.03,0-.05,0ZM34.12,10.2s-.05.01-.08.01c.03,0,.05,0,.08-.01ZM34.3,10.13s.06-.04.09-.06c.02-.01.03-.03.05-.04s.03-.03.05-.05c-.01.02-.03.03-.05.05s-.03.03-.05.04c-.03.02-.06.04-.09.06ZM34.54,9.9s-.03.04-.04.06c.01-.02.03-.04.04-.06.33-.51.13-1.51-.4-1.84.53.33.73,1.33.4,1.84ZM34.08,8.03s.04.02.05.03c-.02-.01-.04-.02-.05-.03ZM33.97,7.98s.02,0,.03,0c0,0-.02,0-.03,0ZM34.02,8s.01,0,.02,0c0,0-.01,0-.02,0ZM31.44,11s-.02,0-.03,0c0,0,.02,0,.03,0ZM31.4,11c-.14,0-.28-.01-.42-.02.14,0,.28.01.42.02ZM31.98,5.23c-.2.05-.37-.03-.52-.15.15.12.32.19.52.15.07-.09-.24-.52-.53-.86.29.34.6.77.53.86ZM30.3,3.55h0c.21.05.42.15.6.27-.17-.12-.38-.22-.6-.27ZM34.12,11.37c.15.7-.12,1.55-.51,2.13.39-.58.66-1.43.51-2.13ZM29.89,2.49c.74.54,2.2.75,3.11,1.11.93.37,1.83.92,2.58,1.62-.75-.7-1.65-1.25-2.58-1.62-.91-.37-2.37-.57-3.11-1.11-.04-.03-.07-.06-.11-.09.04.03.07.06.11.09ZM35.59,5.23s0,0,0,0c0,0,0,0,0,0ZM28.98,1.69c.12.05.23.15.36.27-.12-.12-.24-.22-.36-.27-.23-.1-.39-.09-.5-.01.11-.08.27-.09.5.01ZM26.01,14.19c-.15-.08-.29-.16-.42-.24h0c.13.08.27.17.42.24,1.17.61,3.26.76,4.51.29-1.25.47-3.34.32-4.51-.29ZM30.69,14.41s0-.03-.01-.05c-.01-.02-.35-.24-.43-.31-.38-.36-.72-.9-.84-1.45,0,0,0,0,0,0,.12.55.46,1.09.84,1.45.08.08.42.29.43.31.01.02.02.04.01.05Z"/>
        <path class="cls-3" d="M29.64,16.2c-1.31.13-2.84.07-4.14-.54-.63-.3-1.19-.66-1.66-1.07-.66-.16-1.28-.41-1.87-.74-.65-.37-1.23-.84-1.74-1.39-.51-.56-.93-1.19-1.24-1.88-.32-.71-.52-1.47-.6-2.25-.09-.96,0-1.91.29-2.82.28-.88.71-1.69,1.3-2.41.59-.72,1.3-1.3,2.11-1.74.84-.46,1.75-.73,2.71-.83.81-.08,1.61-.02,2.38.17.47-.57,1.24-.84,2.02-.64.48.12.82.45,1.09.71.09.08.17.16.23.21.47.35,1.24.59,1.98.83.6.19,1.22.39,1.78.66h0c.66.33,1.29.74,1.85,1.22.56.47,1.05,1,1.47,1.57.42.58.76,1.2.99,1.83.25.66.38,1.33.4,1.99.03,1.02-.21,1.97-.72,2.83-.54.91-1.36,1.69-2.44,2.31-.67.38-1.46.74-2.28,1.05-.89.33-1.79.58-2.68.75-.38.07-.79.14-1.24.18ZM30.46,14.33l.03.07s.05,0,.08-.01c.01,0,.02,0,.04,0l-.14-.05ZM30.81,13.43s.14.1.19.13c.18.12.28.19.38.35h0c.05.09.09.18.11.27.7-.18,1.41-.42,2.07-.69l-.66-.44c.32-.47.47-1.08.39-1.49l1.63-.35c.12.58.05,1.17-.12,1.7.07-.04.14-.08.21-.11,1.57-.9,2.37-2.16,2.33-3.65-.04-1.31-.75-2.69-1.86-3.79l-.47.5h0s0,0,0,0l.47-.5s0,0,0,0l-.47.5h0s-.02-.02-.03-.03c-.65-.6-1.44-1.09-2.29-1.43-.07-.03-.16-.06-.24-.09.04.05.07.1.1.15.09.13.15.25.19.36.2.5-.02.84-.12.96l-.18.22-.28.06c-.3.07-.76.07-1.23-.31l.26-.32c-.03-.06-.14-.23-.38-.51l.97-.81c-.06-.02-.11-.03-.17-.05-.24-.07-.49-.13-.73-.21l-.45.68c-.11-.07-.23-.13-.33-.15l-.33-.08-.11-.17-1.7-1.4-.64-.23c-.75-.27-1.54-.36-2.35-.28-3,.29-5.21,2.97-4.92,5.98.23,2.41,1.98,4.35,4.35,4.84l.24.05.07.07h1.11s.21.12.21.12c.12.07.24.14.36.21.66.35,1.74.51,2.67.46-.23-.36-.39-.75-.48-1.14l-.09-.39.34-.42,1.12-.7.25,1.16c.08.35.3.74.59,1.01ZM31.34,4.7c-.22.27-.19.58-.14.71l.4-.5-.26-.21ZM31.83,4.41s-.02,0-.03,0l.04.19.14-.17s-.09-.03-.15-.02ZM28.94,2.37l.71.17.08-.09c-.07-.04-.13-.09-.19-.14-.11-.08-.2-.17-.3-.25l-.3.31h0s0,0,0,0l-.42-.64c-.05.05-.09.11-.11.18l-.09.32.62.15-.02.02s0,0,0,0h0s.01,0,.02-.01c0,0,0,0,0,0h0ZM28.63,2.45h0s0,0,0,0ZM31.42,11.83h-.03s.05-1.66.05-1.66h0s.02,0,.02,0l-.04,1.66ZM31.37,11.83s0,0,0,0h0s-.07,0-.1,0c-.04,0-.09,0-.13,0-.06,0-.13,0-.19,0l.06-1.66c.07,0,.14,0,.2,0,.07,0,.14,0,.2,0,0,0,0,0,0,0,0,0,0,0,0,0l-.05,1.66ZM34.04,11.05s-.07,0-.1,0c-.03,0-.06,0-.1,0,0,0,0,0,0,0,0,0,0,0,0,0l.09-1.54h0s-.14,1.54-.14,1.54c-.03,0-.07,0-.1-.01h0s-.02,0-.03,0c-.04,0-.08-.02-.12-.03l.39-1.5h0s-.44,1.49-.44,1.49c-.04-.01-.08-.02-.12-.04l.55-1.45h0s-.59,1.43-.59,1.43c-.02,0-.04-.02-.06-.02l.65-1.41h0s-.68,1.39-.68,1.39c-.07-.03-.13-.07-.2-.11l.86-1.29h0s-.92,1.24-.92,1.24c-.03-.02-.05-.04-.08-.06l.99-1.19-.03-.02h-.02s0-.01,0-.01c.02-.03.04-.12.03-.26,0-.03,0-.07-.02-.11-.04-.19-.12-.3-.15-.32l.03-.04-.03.04h0s0,0,0,0l.03-.06h0s-.03.06-.03.06h0s.03-.07.03-.07h0s-.03.07-.03.07c0,0,0,0,0,0l.03-.09.84-1.33c.43.27.76.77.89,1.36.02.11.04.21.05.32.05.49-.05.96-.28,1.32h0s-.05.08-.08.11c0,0,0,0,0,0l-1.18-.91v-.02s-.01,0-.01,0h0s-.02,0-.02,0h0s0-.01,0-.01h0s0,0,0,0h0s.11,1.53.11,1.53ZM33.97,9.53h0s0,0,0,0h0ZM33.97,9.52h0s0,0,0,0h0ZM33.94,9.51h0s0,0,0,0h0s0,0,0,0ZM33.94,9.51h0s0-.03,0-.03h0s0,.03,0,.03ZM33.93,9.51h0s0,0,0,0h0s0,0,0,0ZM33.93,9.51h0s0,0,0,0h0s0,0,0,0ZM33.92,9.5h0s0,0,0,0h0s0,0,0,0ZM33.92,9.5h0s0,0,0,0h0s0,0,0,0ZM33.93,9.5h0s0-.03,0-.03h0s0,0,0,0h0s0,0,0,0h0s0,0,0,0h0s0,0,0,0h0s-.01.03-.01.03h0s.01-.02.01-.02h0s0,.03,0,.03h0s0-.02,0-.02v.02s0,0,0,0v-.02s0,.03,0,.03ZM33.92,9.5h0s0,0,0,0h0s0,0,0,0ZM33.92,9.5h0s0,0,0,0h0s0,0,0,0ZM33.91,9.5h0s0,0,0,0h0s0,0,0,0ZM33.91,9.5h0s0,0,0,0h0s0,0,0,0ZM33.9,9.49h0s0,0,0,0h0ZM33.9,9.49h0s.02-.03.02-.03h0s-.03.03-.03.03ZM33.9,9.49h0s0,0,0,0h0ZM33.87,9.47l.02.02h0s0,0,0,0h-.02ZM33.85,9.45l.04.03.03-.04-.02-.04s-.02.01-.03.02c0,0,0,0-.01.01,0,0,0,0,0,.01ZM33.84,9.45l.04.02-.03-.03s0,0,0,0ZM33.93,9.46h0s0,0,0,0h0s0,0,0,0ZM33.93,9.46h0s0,0,0,0h0ZM33.93,9.44h0s0,0,0,0h0s0,0,0,0ZM33.94,9.42h0s0,0,0,0h0s0,0,0,0ZM33.93,9.42h0s0,0,0,0h0ZM33.93,9.39v.04s0-.02,0-.02v-.02s0,0,0,0h0ZM33.95,9.41h0s0,0,0,0h0s0,0,0,0ZM33.94,9.39v.03s0,0,0,0v-.02s0,0,0,0h0s0,0,0,0ZM33.96,9.4h0s.01,0,.01,0c0,0,0,0,0,0h0ZM33.95,9.39v.02s0-.01,0-.01h0s0,0,0,0ZM34.15,11.04l-.2-1.51.02.02.33,1.47c-.05.01-.1.02-.15.03ZM34.7,10.86l-.72-1.31,1.15.95s-.07.08-.1.11c-.04.04-.07.07-.11.1-.07.05-.14.1-.22.15ZM33.93,9.48h0s0,0,0,0ZM33.73,8.71l.02-.03v.02s-.02.01-.02.01ZM33.74,8.7v-.02s0,.02,0,.02h0ZM33.75,8.69h0s.7-1.41.7-1.41c.04.02.08.04.11.06l-.82,1.34ZM33.75,8.68h0s0,0,0,0ZM33.75,8.67h0s.58-1.44.58-1.44c.02,0,.03.01.05.02l-.62,1.42ZM33.76,8.66l.47-1.47s.04.01.06.02l-.53,1.45Z"/>
      </g>
      <g>
        <path class="cls-8" d="M31.78,7.03c.34,3.47-2.2,6.55-5.67,6.88s-6.55-2.2-6.88-5.67c-.34-3.47,2.2-6.55,5.67-6.88,3.47-.34,6.55,2.2,6.88,5.67"/>
        <g>
          <path class="cls-5" d="M36.67,4.93c.26.19.68.07.78.57.08.39-.21.65-.19.85,0,.12.36.78.43,1.03,2.34,8.32-12.41,10.45-15.17,4.94-2.07-4.13.94-7.82,3.64-10.66.82-.42,1.32.1,1.78.02.26-.04.63-.5.93-.61.9-.33,1.41.4,1.75.33.12-.02.42-.32.63-.42,1.38-.68,1.69.48,2.56,1.26.61.54,1.33,1,1.94,1.59.28.27.72.95.93,1.1M25.29,4.15c-.75.93-1.66,1.76-2.02,2.95.87-.25,1.71-.62,2.6-.8.82-.16,2.11-.32,2.94-.27.74.05,1.73.45,2.4.31.41-.09.74-.45,1.11-.62.94-.43,2.19-.52,3.21-.64l-1.1-1.21c-.69-.13-2.05-2.07-2.46-2.1-.59-.04-.91.62-1.34.69-.5.08-.7-.54-1.17-.55-.87-.01-.82.7-1.33.8-.55.1-.9-.49-1.59-.21-.1.04-1.06,1.41-1.25,1.66M36.94,7.93c-.17-.18-.16.11-.18.15-1.02,2.01-3.32,2.41-4.65.47-.21-.32-.81-1.93-1.3-1.1-.19.32-.27,1.16-.52,1.62-.31.55-.96.99-1.55,1.2-1.48.52-2.46.32-3.18-1.12-.17-.34-.41-1.47-.7-1.53-.23-.05-1.79.28-1.91.45-.24.35-.16,2.13-.08,2.58,1.1,5.79,12.55,4.38,13.92-.15.13-.43.39-2.31.15-2.57"/>
          <path class="cls-4" d="M36.94,7.93c.24.26-.02,2.14-.15,2.57-1.37,4.53-12.82,5.94-13.92.15-.09-.45-.17-2.23.08-2.58.12-.17,1.67-.49,1.91-.45.29.06.53,1.18.7,1.53.72,1.44,1.7,1.64,3.18,1.12.59-.21,1.24-.65,1.55-1.2.25-.46.34-1.3.52-1.62.49-.83,1.09.78,1.3,1.1,1.32,1.94,3.63,1.54,4.65-.47.02-.05.01-.33.18-.15M33.2,10.18c-.38-.32-2.15.35-2.7.43-.65.1-1.81-.05-2.31.15-.85.34-.01,2.04.46,2.51,1.45,1.43,3.57.58,4.37-1.09.2-.42.58-1.65.18-1.99"/>
          <path class="cls-4" d="M25.29,4.15c-.75.93-1.66,1.76-2.02,2.95.87-.25,1.71-.62,2.6-.8.82-.16,2.11-.32,2.94-.27.74.05,1.73.45,2.4.31.41-.09.74-.45,1.11-.62.94-.43,2.19-.52,3.21-.64l-1.1-1.21c-.69-.13-2.05-2.07-2.46-2.1-.59-.04-.91.62-1.34.69-.5.08-.7-.54-1.17-.55-.87-.01-.82.7-1.33.8-.55.1-.9-.49-1.59-.21-.1.04-1.06,1.41-1.25,1.66"/>
          <path class="cls-1" d="M33.2,10.18c.41.34.03,1.57-.18,1.99-.8,1.68-2.92,2.52-4.37,1.09-.47-.47-1.31-2.17-.46-2.51.5-.2,1.66-.05,2.31-.15.54-.08,2.31-.75,2.7-.43M28.81,11.83c-.26.26.33.92.55,1.1.85.7,2.62.26,2.27-.36-.34-.59-2.27-1.29-2.81-.74"/>
          <path class="cls-6" d="M28.81,11.83c-.26.26.33.92.55,1.1.85.7,2.62.26,2.27-.36-.34-.59-2.27-1.29-2.81-.74"/>
          <path class="cls-5" d="M28.12,3.06c.1,0,.12.12.11.19-.01.18-.4,1.62-.47,1.75-.08.13-.29.23-.34.04-.05-.19.16-.91.23-1.13.06-.2.22-.84.47-.85"/>
          <path class="cls-5" d="M32.21,4.3c-.39.04-.55-.44-.78-.7-.13-.15-.62-.54-.65-.65-.02-.05-.02-.1-.01-.15.31-.02.65.2.85.41.12.12.69.99.59,1.09"/>
          <path class="cls-5" d="M29.5,2.76c.11-.02.24.23.29.32.16.28.49,1.06.32,1.34-.06.1-.18.14-.25.03-.1-.46-.35-.92-.46-1.37-.02-.1-.05-.3.1-.33"/>
        </g>
      </g>
    </g>
  </g>
</svg>