<?xml version="1.0" encoding="UTF-8"?>
<svg id="Layer_2" data-name="Layer 2" xmlns="http://www.w3.org/2000/svg" viewBox="0 0 48.2 38.36">
  <defs>
    <style>
      .cls-1 {
        fill: #fff;
      }

      .cls-2 {
        fill: #f05b25;
      }
    </style>
  </defs>
  <g id="Layer_1-2" data-name="Layer 1">
    <g>
      <path class="cls-2" d="M23.33.03c3.35.41,19.44,3.05,24.1,16.59,0,0,5.04,16.83-10.59,21.03,0,0-19.32,4.59-21.6-9.68-.05-.29-.37-.45-.63-.31-1.58.89-5.88,4-2.78,10.24.07.14-.03.31-.19.32-.29.01-.69-.07-1.37-.57-1.05-.79-9.75-5.38-10.25-15.48C-.48,12.08,8.93,4.84,14.48,2.65,18.52,1.06,21.04.36,22.12.1c.4-.1.81-.12,1.21-.07Z"/>
      <g>
        <g>
          <path class="cls-1" d="M11.19,17.17c-.14,0-.25-.04-.32-.12-.07-.08-.1-.19-.08-.33l.5-4.39c.05-.45.17-.77.35-.97.19-.19.47-.29.85-.29s.66.09.84.28c.18.19.32.51.41.97l.63,3.19c.02.13.07.19.14.19s.12-.06.14-.19l.64-3.19c.09-.46.22-.79.41-.97.18-.19.46-.28.83-.28s.66.1.85.29.31.52.36.97l.5,4.39c.02.14-.01.25-.08.33-.07.08-.18.12-.32.12h-.44c-.27,0-.41-.13-.44-.4l-.43-4.14c0-.07-.04-.1-.1-.09-.05,0-.09.03-.1.09l-.75,3.76c-.06.28-.17.48-.34.6-.17.12-.41.18-.72.18s-.54-.06-.71-.19c-.17-.12-.28-.33-.34-.6l-.75-3.76c0-.06-.04-.09-.09-.09-.06,0-.09.03-.1.09l-.43,4.14c-.03.27-.17.4-.44.4h-.44Z"/>
          <path class="cls-1" d="M23.76,16.44c-.51.54-1.19.8-2.05.8s-1.54-.27-2.05-.8c-.51-.54-.76-1.3-.76-2.28s.25-1.75.76-2.28c.51-.54,1.19-.81,2.05-.81s1.54.27,2.05.81c.51.54.76,1.3.76,2.28s-.25,1.75-.76,2.28ZM20.65,15.67c.25.3.6.45,1.06.45s.82-.15,1.06-.45c.25-.3.37-.8.37-1.51s-.12-1.21-.37-1.51c-.25-.3-.6-.45-1.06-.45s-.82.15-1.06.45c-.25.3-.37.8-.37,1.51s.12,1.21.37,1.51Z"/>
          <path class="cls-1" d="M25.61,17.17c-.14,0-.25-.04-.32-.12-.07-.08-.1-.19-.08-.33l.5-4.39c.05-.45.17-.77.35-.97.19-.19.47-.29.85-.29s.66.09.84.28c.18.19.32.51.41.97l.63,3.19c.02.13.07.19.14.19s.12-.06.14-.19l.64-3.19c.09-.46.22-.79.41-.97.18-.19.46-.28.83-.28s.66.1.85.29.31.52.36.97l.5,4.39c.02.14-.01.25-.08.33-.07.08-.18.12-.32.12h-.44c-.27,0-.41-.13-.44-.4l-.43-4.14c0-.07-.04-.1-.1-.09-.05,0-.09.03-.1.09l-.75,3.76c-.06.28-.17.48-.34.6-.17.12-.41.18-.72.18s-.54-.06-.71-.19c-.17-.12-.28-.33-.34-.6l-.75-3.76c0-.06-.04-.09-.09-.09-.06,0-.09.03-.1.09l-.43,4.14c-.03.27-.17.4-.44.4h-.44Z"/>
          <path class="cls-1" d="M38.18,16.44c-.51.54-1.19.8-2.05.8s-1.54-.27-2.05-.8c-.51-.54-.76-1.3-.76-2.28s.25-1.75.76-2.28c.51-.54,1.19-.81,2.05-.81s1.54.27,2.05.81c.51.54.76,1.3.76,2.28s-.25,1.75-.76,2.28ZM35.07,15.67c.25.3.6.45,1.06.45s.82-.15,1.06-.45c.25-.3.37-.8.37-1.51s-.12-1.21-.37-1.51c-.25-.3-.6-.45-1.06-.45s-.82.15-1.06.45c-.25.3-.37.8-.37,1.51s.12,1.21.37,1.51Z"/>
        </g>
        <g>
          <path class="cls-1" d="M15.84,23.73c.1.12.11.23.03.32-.07.09-.21.13-.39.13h-.44c-.29,0-.48-.08-.59-.23l-2.01-2.45v2.26c0,.14-.04.24-.11.31s-.18.11-.31.11h-.45c-.14,0-.24-.04-.32-.11-.08-.07-.11-.18-.11-.31v-5.16c0-.14.04-.24.11-.31.08-.07.18-.11.32-.11h.45c.14,0,.24.04.31.11.07.07.11.18.11.31v2.22l2.01-2.43c.11-.15.31-.22.59-.22h.43c.2,0,.33.04.4.13.07.09.06.19-.04.32l-2.13,2.53,2.14,2.57Z"/>
          <path class="cls-1" d="M21.76,24.18c-.25,0-.41-.12-.48-.36l-.33-1.18h-2.58l-.33,1.18c-.07.24-.23.36-.47.36h-.48c-.15,0-.26-.04-.32-.13-.06-.09-.08-.2-.03-.35l1.23-4.08c.17-.57.38-.97.63-1.19.26-.23.61-.34,1.08-.34s.83.11,1.08.34c.26.23.46.62.62,1.19l1.22,4.08c.04.14.03.26-.03.35-.06.09-.17.13-.32.13h-.48ZM18.68,21.55h1.97l-.51-1.82c-.06-.2-.12-.34-.19-.42-.07-.07-.16-.11-.28-.11s-.21.04-.28.11c-.07.07-.13.21-.19.42l-.51,1.82Z"/>
          <path class="cls-1" d="M27.18,18.18c.14,0,.24.04.32.11.08.07.11.18.11.31v.32c0,.14-.04.24-.11.31-.08.07-.18.11-.32.11h-1.49v4.41c0,.14-.04.24-.11.31-.08.07-.18.11-.32.11h-.46c-.14,0-.24-.04-.31-.11-.07-.07-.11-.18-.11-.31v-4.41h-1.49c-.14,0-.24-.04-.31-.11-.07-.07-.11-.18-.11-.31v-.32c0-.14.04-.24.11-.31s.18-.11.31-.11h4.3Z"/>
          <path class="cls-1" d="M32.85,23.46c-.51.54-1.19.8-2.05.8s-1.54-.27-2.05-.8c-.51-.54-.76-1.3-.76-2.28s.25-1.75.76-2.28c.51-.54,1.19-.81,2.05-.81s1.54.27,2.05.81c.51.54.76,1.3.76,2.28s-.25,1.75-.76,2.28ZM29.73,22.69c.25.3.6.45,1.06.45s.82-.15,1.06-.45c.25-.3.37-.8.37-1.51s-.12-1.21-.37-1.51c-.25-.3-.6-.45-1.06-.45s-.82.15-1.06.45c-.25.3-.37.8-.37,1.51s.12,1.21.37,1.51Z"/>
        </g>
      </g>
    </g>
  </g>
</svg>